<?xml version="1.0" encoding="UTF-8"?>
<svg xmlns="http://www.w3.org/2000/svg" xmlns:xlink="http://www.w3.org/1999/xlink" width="128pt" height="71pt" viewBox="0 0 128 71" version="1.1">
<g id="surface1">
<path style=" stroke:none;fill-rule:nonzero;fill:rgb(97.647059%,90.980392%,5.098039%);fill-opacity:1;" d="M 0.269531 45.121094 L 3.210938 37.34375 L 10.398438 35.851562 L 11.867188 28.425781 L 13.828125 27.414062 L 9.417969 23.441406 L 15.296875 16.328125 L 14.152344 11.859375 L 20.847656 9.707031 L 28.203125 6.140625 L 34.578125 6.140625 L 38.988281 8.878906 L 42.582031 2.09375 L 45.03125 2.09375 L 46.828125 0.273438 L 50.253906 1.597656 L 49.441406 4.082031 L 54.828125 9.871094 L 53.359375 11.363281 L 56.789062 17.152344 L 53.359375 17.652344 L 52.050781 22.699219 L 62.503906 29.898438 L 67.242188 44.460938 L 58.585938 49.589844 L 69.691406 58.121094 L 40.949219 70.773438 L 33.902344 67.527344 L 26.566406 66.804688 L 21.667969 59.851562 L 21.667969 55.878906 L 16.605469 54.226562 L 18.074219 48.433594 L 15.132812 47.9375 L 12.191406 50.722656 L 0.269531 45.121094 "/>
<path style="fill:none;stroke-width:28.3465;stroke-linecap:round;stroke-linejoin:round;stroke:rgb(97.647059%,90.980392%,5.098039%);stroke-opacity:1;stroke-miterlimit:10;" d="M 14.087571 1344.771574 L 167.825851 1748.162903 L 543.494422 1825.558929 L 620.261478 2210.715592 L 722.753665 2263.190909 L 492.248329 2469.242632 L 799.52072 2838.190704 L 739.699584 3069.973567 L 1089.643025 3181.610243 L 1474.090807 3366.590798 L 1807.292497 3366.590798 L 2037.797832 3224.563012 L 2225.632118 3576.492062 L 2353.645267 3576.492062 L 2447.56241 3670.907109 L 2626.617484 3602.223201 L 2584.150602 3473.364896 L 2865.697863 3173.100733 L 2788.930807 3095.704707 L 2968.190049 2795.440543 L 2788.930807 2769.506796 L 2720.534627 2507.738038 L 3266.887397 2134.332603 L 3514.54282 1379.012224 L 3062.107192 1112.988711 L 3642.555969 670.494153 L 2140.290018 14.248792 L 1771.971484 182.615539 L 1388.54454 220.097908 L 1132.518242 580.739076 L 1132.518242 786.7908 L 867.916901 872.493729 L 944.683956 1172.9605 L 790.945677 1198.69164 L 637.207397 1054.232565 Z M 14.087571 1344.771574 " transform="matrix(0.0191326,0,0,-0.0192799,0,71.048153)"/>
<path style=" stroke:none;fill-rule:nonzero;fill:rgb(100%,100%,100%);fill-opacity:1;" d="M 65.769531 38.226562 C 65.710938 38.214844 65.648438 38.222656 65.585938 38.222656 C 63.824219 38.222656 63.636719 39.433594 63.636719 39.941406 L 63.636719 42.695312 C 62.820312 41.890625 61.59375 41.449219 60.039062 41.449219 C 58.726562 41.449219 57.617188 41.824219 56.78125 42.5 C 56.667969 41.988281 56.222656 41.640625 55.644531 41.640625 L 54.570312 41.640625 C 53.519531 41.640625 53.203125 42.242188 52.921875 42.769531 C 52.734375 43.125 52.578125 43.425781 52.441406 43.6875 C 52.382812 43.800781 52.324219 43.90625 52.269531 44.007812 C 52.222656 43.917969 52.171875 43.8125 52.117188 43.707031 C 51.949219 43.371094 51.753906 42.988281 51.585938 42.671875 C 51.300781 42.140625 50.878906 41.59375 49.90625 41.59375 L 48.910156 41.59375 C 48.546875 41.59375 48.238281 41.722656 48.019531 41.9375 C 47.691406 41.742188 47.238281 41.640625 46.667969 41.640625 C 45.054688 41.640625 44.714844 42.472656 44.714844 43.171875 C 44.714844 43.351562 44.71875 43.550781 44.722656 43.8125 C 44.734375 44.3125 44.746094 45.066406 44.746094 46.386719 C 44.746094 48.234375 44.125 48.234375 43.859375 48.234375 C 43.683594 48.234375 43.214844 48.234375 43.214844 46.921875 C 43.214844 46.410156 43.226562 45.175781 43.238281 44.277344 C 43.242188 43.730469 43.246094 43.296875 43.246094 43.1875 C 43.246094 41.59375 41.765625 41.59375 41.28125 41.59375 C 40.617188 41.59375 40.167969 41.746094 39.871094 41.972656 C 39.582031 41.753906 39.195312 41.640625 38.714844 41.640625 C 37.832031 41.640625 37.222656 41.957031 36.800781 42.316406 C 36.523438 41.851562 36.050781 41.640625 35.332031 41.640625 C 34.9375 41.640625 34.636719 41.707031 34.398438 41.816406 C 33.984375 40.300781 32.4375 38.847656 28.019531 38.847656 C 25.625 38.847656 23.648438 39.027344 23.648438 41.265625 C 23.648438 41.675781 23.660156 42.207031 23.671875 42.714844 C 23.683594 43.214844 23.695312 43.6875 23.695312 44.042969 C 23.695312 44.414062 23.683594 45.535156 23.671875 46.621094 C 23.660156 47.785156 23.648438 48.984375 23.648438 49.410156 C 23.648438 51.640625 26.09375 51.828125 28.820312 51.828125 C 31.304688 51.828125 32.777344 51.257812 33.625 50.457031 C 33.761719 51.035156 34.210938 51.667969 35.539062 51.667969 C 36.835938 51.667969 37.492188 51.101562 37.492188 49.988281 L 37.492188 46.984375 C 37.492188 45.492188 38.128906 45.367188 38.730469 45.367188 C 38.910156 45.367188 39.121094 45.34375 39.335938 45.28125 C 39.335938 45.355469 39.335938 45.421875 39.335938 45.484375 C 39.339844 45.855469 39.34375 46.214844 39.34375 47.46875 C 39.34375 51.277344 41.601562 51.84375 42.945312 51.84375 C 44.144531 51.84375 44.894531 51.449219 45.371094 51.007812 C 45.6875 51.429688 46.175781 51.636719 46.84375 51.636719 C 47.265625 51.636719 47.628906 51.53125 47.914062 51.347656 C 48.148438 51.558594 48.46875 51.683594 48.832031 51.683594 C 49.019531 51.683594 49.136719 51.6875 49.253906 51.691406 C 49.382812 51.695312 49.515625 51.699219 49.726562 51.699219 C 50.679688 51.699219 51.078125 51.316406 51.402344 50.695312 L 52.257812 49.230469 L 53.105469 50.660156 C 53.421875 51.292969 53.824219 51.683594 54.792969 51.683594 C 54.984375 51.683594 55.136719 51.6875 55.273438 51.691406 C 55.402344 51.695312 55.519531 51.699219 55.644531 51.699219 C 56.453125 51.699219 56.863281 51.328125 57.015625 50.90625 C 57.816406 51.5 58.835938 51.828125 60.023438 51.828125 C 62 51.828125 63.234375 51.144531 63.902344 50.339844 C 64.320312 51.289062 65.214844 51.84375 66.4375 51.84375 C 67.40625 51.84375 67.960938 51.539062 68.277344 51.167969 C 68.757812 51.601562 69.417969 51.84375 70.222656 51.84375 C 71.527344 51.84375 72.082031 51.292969 72.3125 50.769531 C 73.140625 51.449219 74.222656 51.828125 75.496094 51.828125 C 77.636719 51.828125 78.90625 51.027344 79.527344 50.140625 C 80.125 51.027344 81.367188 51.84375 83.496094 51.84375 C 86.949219 51.84375 88.175781 50.019531 88.175781 48.457031 C 88.175781 47.28125 87.6875 46.546875 86.855469 46.058594 C 87.507812 45.816406 87.902344 45.269531 87.902344 44.53125 C 87.902344 43.117188 86.769531 41.464844 83.578125 41.464844 C 81.753906 41.464844 80.320312 42.195312 79.632812 43.355469 C 78.878906 42.136719 77.453125 41.449219 75.511719 41.449219 C 73.570312 41.449219 72.070312 42.269531 71.25 43.675781 C 71.257812 42.386719 71.269531 41.191406 71.273438 40.496094 C 71.566406 40.691406 71.996094 40.828125 72.621094 40.828125 C 73.914062 40.828125 74.570312 40.292969 74.570312 39.234375 C 74.570312 39.074219 74.566406 38.863281 74.558594 38.632812 C 74.550781 38.4375 74.542969 38.226562 74.539062 38.039062 C 74.945312 38.21875 75.484375 38.355469 76.195312 38.355469 C 77.523438 38.355469 78.859375 37.71875 79.710938 36.476562 L 79.710938 36.632812 C 79.710938 37.324219 80.066406 38.148438 81.757812 38.148438 C 83.433594 38.148438 83.613281 37.078125 83.613281 36.617188 L 83.613281 33.046875 C 83.613281 32.347656 83.832031 31.605469 84.4375 31.605469 C 84.816406 31.605469 85.113281 31.605469 85.113281 32.933594 C 85.113281 33.414062 85.101562 34.570312 85.09375 35.410156 C 85.089844 35.957031 85.082031 36.402344 85.082031 36.519531 C 85.082031 37.269531 85.429688 38.164062 87.082031 38.164062 C 88.570312 38.164062 88.929688 37.347656 88.992188 36.734375 C 89.875 37.746094 91.210938 38.324219 92.855469 38.324219 C 94.503906 38.324219 95.753906 37.65625 96.585938 36.660156 C 96.628906 37.648438 97.269531 38.148438 98.5 38.148438 C 99.203125 38.148438 100.515625 38.148438 100.515625 36.535156 C 100.515625 36.335938 100.511719 36.082031 100.511719 35.75 C 100.507812 35.140625 100.5 34.265625 100.5 33 C 100.5 32.292969 100.722656 31.539062 101.351562 31.539062 C 101.757812 31.539062 102.046875 31.539062 102.046875 32.867188 C 102.046875 33.367188 102.027344 34.601562 102.015625 35.503906 C 102.003906 36.0625 102 36.507812 102 36.617188 C 102 38.132812 103.25 38.132812 104 38.132812 C 104.460938 38.132812 105.820312 38.128906 105.9375 36.761719 C 106.804688 37.757812 108.078125 38.324219 109.644531 38.324219 C 111.996094 38.324219 113.292969 37.359375 113.839844 36.375 C 114.359375 37.359375 115.625 38.339844 117.964844 38.339844 C 121.417969 38.339844 122.644531 36.515625 122.644531 34.953125 C 122.644531 33.777344 122.15625 33.042969 121.324219 32.554688 C 121.925781 32.332031 122.304688 31.847656 122.359375 31.191406 C 122.589844 31.375 122.761719 31.582031 122.96875 31.828125 C 123.195312 32.101562 123.449219 32.410156 123.835938 32.742188 C 124.304688 33.140625 124.9375 33.375 125.570312 33.375 C 126.28125 33.375 126.917969 33.082031 127.367188 32.550781 C 128.363281 31.367188 128.015625 29.851562 127.105469 29.066406 C 126.875 28.871094 126.617188 28.710938 126.324219 28.585938 C 127.023438 28.167969 127.546875 27.4375 127.546875 26.519531 C 127.546875 24.964844 126.304688 24.035156 125.105469 24.035156 C 124.449219 24.035156 123.816406 24.269531 123.234375 24.636719 C 123.589844 23.664062 123.410156 22.441406 122.460938 21.734375 C 122.019531 21.410156 121.511719 21.234375 120.996094 21.234375 C 120.230469 21.234375 119.492188 21.613281 119.027344 22.25 C 118.066406 23.566406 118.324219 25.625 118.882812 27.109375 C 119.011719 27.445312 119.160156 27.769531 119.324219 28.0625 C 118.9375 27.996094 118.515625 27.960938 118.046875 27.960938 C 116.070312 27.960938 114.554688 28.8125 113.949219 30.148438 C 113.246094 28.742188 111.75 27.945312 109.660156 27.945312 C 107.792969 27.945312 106.335938 28.703125 105.496094 30.007812 C 104.839844 28.523438 103.488281 27.945312 102.203125 27.945312 C 100.984375 27.945312 100.226562 28.335938 99.746094 28.761719 C 99.460938 28.324219 99.015625 28.136719 98.324219 28.136719 C 97.082031 28.136719 96.710938 28.804688 96.640625 29.453125 C 95.785156 28.46875 94.476562 27.945312 92.75 27.945312 C 90.789062 27.96875 89.371094 28.679688 88.566406 29.996094 C 87.746094 28.15625 85.949219 27.976562 85.285156 27.976562 C 84.507812 27.976562 83.933594 28.132812 83.503906 28.34375 L 83.503906 26.261719 C 83.503906 24.746094 82.070312 24.746094 81.597656 24.746094 C 80.050781 24.746094 79.726562 25.613281 79.726562 26.339844 C 79.726562 26.484375 79.726562 26.976562 79.726562 27.699219 C 79.722656 28.261719 79.722656 28.96875 79.71875 29.757812 C 78.964844 28.617188 77.777344 27.960938 76.292969 27.960938 C 75.105469 27.960938 74.367188 28.375 73.902344 28.785156 C 73.640625 28.324219 73.222656 28.058594 72.445312 28.058594 C 71.722656 28.058594 70.777344 28.210938 70.691406 29.46875 C 69.839844 28.472656 68.523438 27.945312 66.789062 27.945312 C 64.945312 27.964844 63.582031 28.601562 62.753906 29.773438 C 62.117188 28.746094 60.867188 27.945312 58.765625 27.945312 C 56.917969 27.945312 55.4375 28.699219 54.566406 29.96875 C 53.90625 28.511719 52.570312 27.945312 51.292969 27.945312 C 50.074219 27.945312 49.316406 28.335938 48.835938 28.761719 C 48.550781 28.324219 48.105469 28.136719 47.414062 28.136719 C 46.261719 28.136719 45.859375 28.714844 45.753906 29.316406 C 45.078125 28.5 43.953125 27.929688 42.125 27.929688 C 40.609375 27.929688 39.519531 28.304688 38.769531 28.882812 C 38.492188 28.398438 37.976562 28.136719 37.25 28.136719 C 36.367188 28.136719 35.757812 28.453125 35.335938 28.8125 C 35.058594 28.347656 34.585938 28.136719 33.867188 28.136719 C 33.558594 28.136719 33.304688 28.179688 33.09375 28.25 C 33.164062 28.027344 33.203125 27.753906 33.203125 27.421875 C 33.203125 26.96875 33.203125 25.585938 31.71875 25.585938 C 30.339844 25.585938 28.234375 25.558594 25.464844 25.503906 C 25.433594 25.503906 25.398438 25.503906 25.367188 25.503906 C 24.316406 25.503906 23.785156 26.007812 23.785156 27.003906 C 23.785156 27.1875 23.792969 27.671875 23.804688 28.292969 C 23.824219 29.375 23.847656 30.851562 23.847656 31.835938 C 23.847656 32.839844 23.8125 34.433594 23.789062 35.492188 C 23.777344 36.050781 23.769531 36.476562 23.769531 36.617188 C 23.769531 38.132812 25.28125 38.132812 25.847656 38.132812 C 26.382812 38.132812 27.800781 38.132812 27.800781 36.632812 L 27.800781 34.140625 L 31.414062 34.140625 C 31.679688 34.140625 31.914062 34.101562 32.113281 34.027344 C 32.109375 34.746094 32.105469 35.5625 32.105469 36.488281 C 32.105469 37.113281 32.363281 38.164062 34.074219 38.164062 C 35.371094 38.164062 36.027344 37.601562 36.027344 36.488281 L 36.027344 33.484375 C 36.027344 31.988281 36.667969 31.863281 37.265625 31.863281 C 37.308594 31.863281 37.351562 31.859375 37.398438 31.859375 C 37.417969 32.769531 37.8125 33.242188 38.3125 33.46875 C 37.726562 33.882812 37.316406 34.507812 37.316406 35.488281 C 37.316406 37.148438 38.71875 38.355469 40.648438 38.355469 C 42.027344 38.355469 42.902344 37.917969 43.457031 37.472656 C 43.738281 37.933594 44.214844 38.179688 44.847656 38.179688 C 45.5 38.179688 45.925781 38.019531 46.199219 37.78125 C 46.519531 38.023438 46.980469 38.148438 47.589844 38.148438 C 48.296875 38.148438 49.605469 38.148438 49.605469 36.535156 C 49.605469 36.335938 49.605469 36.082031 49.601562 35.75 C 49.597656 35.140625 49.589844 34.265625 49.589844 33 C 49.589844 32.292969 49.816406 31.539062 50.445312 31.539062 C 50.847656 31.539062 51.136719 31.539062 51.136719 32.867188 C 51.136719 33.367188 51.117188 34.601562 51.105469 35.503906 C 51.097656 36.0625 51.089844 36.507812 51.089844 36.617188 C 51.089844 38.132812 52.339844 38.132812 53.089844 38.132812 C 53.546875 38.132812 54.882812 38.128906 55.027344 36.804688 C 55.910156 37.777344 57.195312 38.324219 58.765625 38.324219 C 60.992188 38.324219 62.265625 37.449219 62.851562 36.511719 C 63.535156 37.40625 64.535156 38.003906 65.769531 38.226562 "/>
<path style=" stroke:none;fill-rule:nonzero;fill:rgb(89.411765%,9.411765%,21.960784%);fill-opacity:1;" d="M 120.996094 22.011719 C 120.472656 22.011719 119.96875 22.273438 119.652344 22.710938 C 118.875 23.777344 119.140625 25.597656 119.605469 26.832031 C 119.789062 27.324219 120.027344 27.78125 120.28125 28.140625 C 120.285156 27.820312 120.34375 27.386719 120.570312 26.890625 C 120.835938 26.320312 121.167969 25.996094 121.519531 25.652344 C 121.761719 25.414062 122.015625 25.171875 122.277344 24.8125 C 122.722656 24.199219 122.875 23.011719 122.003906 22.363281 C 121.691406 22.132812 121.351562 22.011719 120.996094 22.011719 M 125.105469 24.8125 C 123.792969 24.8125 122.496094 26.109375 121.785156 27.214844 C 121.5 27.652344 121.277344 28.121094 121.140625 28.539062 C 121.398438 28.351562 121.78125 28.144531 122.308594 28.035156 C 122.523438 27.992188 122.730469 27.96875 122.945312 27.96875 C 123.269531 27.96875 123.558594 28.019531 123.863281 28.070312 C 124.195312 28.128906 124.539062 28.1875 124.980469 28.1875 C 125.734375 28.1875 126.777344 27.609375 126.777344 26.519531 C 126.777344 25.410156 125.914062 24.8125 125.105469 24.8125 M 126.601562 29.65625 C 125.988281 29.132812 125.109375 29.023438 124.480469 29.023438 C 123.636719 29.023438 122.894531 29.207031 122.527344 29.320312 C 122.316406 29.382812 122.113281 29.457031 121.917969 29.539062 C 122.0625 29.753906 122.167969 29.980469 122.242188 30.207031 C 122.292969 30.234375 122.347656 30.257812 122.398438 30.285156 C 122.945312 30.589844 123.242188 30.949219 123.558594 31.328125 C 123.777344 31.589844 124 31.859375 124.335938 32.148438 C 124.664062 32.429688 125.125 32.59375 125.570312 32.59375 C 125.910156 32.59375 126.398438 32.5 126.777344 32.046875 C 127.488281 31.203125 127.21875 30.1875 126.601562 29.65625 "/>
<path style=" stroke:none;fill-rule:nonzero;fill:rgb(89.803922%,8.627451%,20.784314%);fill-opacity:1;" d="M 120.996094 22.011719 C 120.472656 22.011719 119.96875 22.273438 119.652344 22.710938 C 118.875 23.777344 119.140625 25.597656 119.605469 26.832031 C 119.789062 27.324219 120.027344 27.78125 120.28125 28.140625 C 120.285156 27.820312 120.34375 27.386719 120.570312 26.890625 C 120.835938 26.320312 121.167969 25.996094 121.519531 25.652344 C 121.761719 25.414062 122.015625 25.171875 122.277344 24.8125 C 122.722656 24.199219 122.875 23.011719 122.003906 22.363281 C 121.691406 22.132812 121.351562 22.011719 120.996094 22.011719 M 125.105469 24.8125 C 123.792969 24.8125 122.496094 26.109375 121.785156 27.214844 C 121.5 27.652344 121.277344 28.121094 121.140625 28.539062 C 121.398438 28.351562 121.78125 28.144531 122.308594 28.035156 C 122.523438 27.992188 122.730469 27.96875 122.945312 27.96875 C 123.269531 27.96875 123.558594 28.019531 123.863281 28.070312 C 124.195312 28.128906 124.539062 28.1875 124.980469 28.1875 C 125.734375 28.1875 126.777344 27.609375 126.777344 26.519531 C 126.777344 25.410156 125.914062 24.8125 125.105469 24.8125 M 126.601562 29.65625 C 125.988281 29.132812 125.109375 29.023438 124.480469 29.023438 C 123.636719 29.023438 122.894531 29.207031 122.527344 29.320312 C 122.316406 29.382812 122.113281 29.457031 121.917969 29.539062 C 122.0625 29.753906 122.167969 29.980469 122.242188 30.207031 C 122.292969 30.234375 122.347656 30.257812 122.398438 30.285156 C 122.945312 30.589844 123.242188 30.949219 123.558594 31.328125 C 123.777344 31.589844 124 31.859375 124.335938 32.148438 C 124.664062 32.429688 125.125 32.59375 125.570312 32.59375 C 125.910156 32.59375 126.398438 32.5 126.777344 32.046875 C 127.488281 31.203125 127.21875 30.1875 126.601562 29.65625 "/>
<path style=" stroke:none;fill-rule:nonzero;fill:rgb(76.862745%,77.254902%,77.254902%);fill-opacity:1;" d="M 26.816406 44.59375 C 26.816406 44.949219 26.960938 45.046875 28.46875 45.046875 C 30.4375 45.046875 31.144531 44.382812 31.144531 43.414062 C 31.144531 42.445312 30.375 41.78125 28.242188 41.78125 C 27.152344 41.78125 26.816406 41.914062 26.816406 42.460938 Z M 28.210938 46.355469 C 27.089844 46.355469 26.929688 46.402344 26.847656 46.886719 C 26.769531 47.339844 26.847656 48.164062 26.847656 48.488281 C 26.847656 48.746094 27.058594 49.132812 28.546875 49.132812 C 30.664062 49.132812 31.257812 48.585938 31.257812 47.695312 C 31.257812 46.871094 30.535156 46.355469 28.210938 46.355469 Z M 28.820312 51.007812 C 25.261719 51.007812 24.460938 50.492188 24.460938 49.410156 C 24.460938 48.585938 24.507812 44.804688 24.507812 44.042969 C 24.507812 43.300781 24.460938 42.058594 24.460938 41.265625 C 24.460938 40.167969 24.890625 39.667969 28.019531 39.667969 C 32.125 39.667969 33.710938 40.957031 33.710938 42.800781 C 33.710938 45.113281 31.851562 45.371094 31.851562 45.597656 C 31.851562 45.917969 33.855469 46 33.855469 47.859375 C 33.855469 49.261719 33.132812 51.007812 28.820312 51.007812 M 36.679688 49.988281 C 36.679688 50.570312 36.453125 50.847656 35.539062 50.847656 C 34.691406 50.847656 34.386719 50.589844 34.386719 49.988281 C 34.386719 45.707031 34.449219 43.722656 34.449219 43.171875 C 34.449219 42.640625 34.65625 42.460938 35.332031 42.460938 C 36.003906 42.460938 36.164062 42.640625 36.261719 43.253906 C 36.339844 43.800781 36.390625 43.882812 36.503906 43.882812 C 36.773438 43.882812 37.0625 42.460938 38.714844 42.460938 C 39.371094 42.460938 39.660156 42.703125 39.660156 43.414062 C 39.660156 44.011719 39.546875 44.546875 38.730469 44.546875 C 37.382812 44.546875 36.679688 45.351562 36.679688 46.984375 L 36.679688 49.988281 M 46.84375 50.816406 C 46.136719 50.816406 45.929688 50.523438 45.816406 50.023438 C 45.738281 49.667969 45.738281 49.359375 45.59375 49.359375 C 45.320312 49.359375 45.242188 51.023438 42.945312 51.023438 C 41.070312 51.023438 40.15625 49.84375 40.15625 47.46875 C 40.15625 44.886719 40.140625 46.082031 40.140625 43.222656 C 40.140625 42.6875 40.367188 42.414062 41.28125 42.414062 C 42.097656 42.414062 42.433594 42.558594 42.433594 43.1875 C 42.433594 43.480469 42.402344 46.097656 42.402344 46.921875 C 42.402344 48.34375 42.933594 49.054688 43.859375 49.054688 C 45 49.054688 45.5625 48.164062 45.5625 46.386719 C 45.5625 44.382812 45.527344 43.6875 45.527344 43.171875 C 45.527344 42.671875 45.816406 42.460938 46.667969 42.460938 C 47.484375 42.460938 47.851562 42.605469 47.851562 43.203125 C 47.851562 44.175781 47.804688 49.410156 47.804688 49.957031 C 47.804688 50.492188 47.515625 50.816406 46.84375 50.816406 M 52.484375 48.019531 C 52.421875 47.890625 52.375 47.859375 52.261719 47.859375 C 52.148438 47.859375 52.085938 47.875 52.019531 48.019531 L 50.691406 50.296875 C 50.464844 50.734375 50.304688 50.878906 49.726562 50.878906 C 49.328125 50.878906 49.230469 50.863281 48.832031 50.863281 C 48.496094 50.863281 48.332031 50.667969 48.332031 50.460938 C 48.332031 50.183594 48.460938 49.941406 49.085938 49.117188 C 49.664062 48.34375 50.066406 47.792969 50.339844 47.390625 C 50.625 46.96875 50.722656 46.773438 50.722656 46.53125 C 50.722656 46.324219 50.691406 46.242188 50.320312 45.691406 C 49.695312 44.757812 48.992188 43.753906 48.71875 43.351562 C 48.558594 43.125 48.496094 42.929688 48.496094 42.769531 C 48.496094 42.542969 48.636719 42.414062 48.910156 42.414062 L 49.90625 42.414062 C 50.386719 42.414062 50.609375 42.574219 50.867188 43.058594 C 51.171875 43.625 51.554688 44.414062 51.734375 44.738281 C 51.972656 45.191406 52.132812 45.484375 52.261719 45.484375 C 52.453125 45.484375 52.648438 45.03125 53.640625 43.15625 C 53.914062 42.640625 54.023438 42.460938 54.570312 42.460938 L 55.644531 42.460938 C 55.902344 42.460938 56 42.589844 56 42.769531 C 56 43.058594 55.804688 43.285156 55.5 43.769531 C 55.261719 44.140625 55.035156 44.449219 54.78125 44.835938 C 54.089844 45.871094 53.753906 46.160156 53.753906 46.46875 C 53.753906 46.695312 53.800781 46.808594 54.652344 48.066406 C 55.277344 48.988281 55.789062 49.617188 55.964844 49.859375 C 56.191406 50.167969 56.269531 50.296875 56.269531 50.507812 C 56.269531 50.71875 56.125 50.878906 55.644531 50.878906 C 55.386719 50.878906 55.164062 50.863281 54.792969 50.863281 C 54.203125 50.863281 54.042969 50.71875 53.816406 50.265625 L 52.484375 48.019531 "/>
<path style=" stroke:none;fill-rule:nonzero;fill:rgb(76.862745%,77.254902%,77.254902%);fill-opacity:1;" d="M 61.625 45.726562 C 61.929688 45.726562 62.027344 45.613281 62.027344 45.351562 C 62.027344 44.757812 61.464844 43.949219 60.101562 43.949219 C 58.691406 43.949219 58.132812 44.820312 58.132812 45.386719 C 58.132812 45.628906 58.195312 45.726562 58.484375 45.726562 Z M 60.023438 51.007812 C 57.472656 51.007812 55.886719 49.261719 55.886719 46.5 C 55.886719 44.03125 57.378906 42.269531 60.039062 42.269531 C 62.539062 42.269531 63.96875 43.511719 63.96875 45.726562 C 63.96875 46.695312 63.660156 46.886719 63.039062 46.886719 C 62.589844 46.886719 58.820312 46.871094 58.449219 46.871094 C 58.097656 46.871094 58.066406 47.035156 58.066406 47.292969 C 58.066406 48.390625 58.898438 49.214844 60.117188 49.214844 C 62.121094 49.214844 61.753906 47.90625 62.925781 47.90625 C 63.34375 47.90625 63.726562 48.195312 63.726562 48.746094 C 63.726562 49.554688 62.730469 51.007812 60.023438 51.007812 M 64.449219 39.941406 C 64.449219 39.375 64.753906 39.070312 65.585938 39.070312 C 66.355469 39.070312 66.675781 39.261719 66.675781 39.972656 C 66.675781 40.925781 66.613281 48.066406 66.613281 48.859375 C 66.613281 49.167969 66.675781 49.277344 66.886719 49.277344 C 66.996094 49.277344 67.078125 49.246094 67.253906 49.246094 C 67.671875 49.246094 67.878906 49.503906 67.878906 49.988281 C 67.878906 50.667969 67.414062 51.023438 66.4375 51.023438 C 65.089844 51.023438 64.449219 50.199219 64.449219 48.972656 L 64.449219 39.941406 M 68.234375 39.941406 C 68.234375 39.375 68.535156 39.070312 69.371094 39.070312 C 70.140625 39.070312 70.460938 39.261719 70.460938 39.972656 C 70.460938 40.925781 70.398438 48.066406 70.398438 48.859375 C 70.398438 49.167969 70.460938 49.277344 70.671875 49.277344 C 70.78125 49.277344 70.863281 49.246094 71.039062 49.246094 C 71.457031 49.246094 71.664062 49.503906 71.664062 49.988281 C 71.664062 50.667969 71.199219 51.023438 70.222656 51.023438 C 68.875 51.023438 68.234375 50.199219 68.234375 48.972656 L 68.234375 39.941406 "/>
<path style=" stroke:none;fill-rule:nonzero;fill:rgb(76.862745%,77.254902%,77.254902%);fill-opacity:1;" d="M 77.101562 45.726562 C 77.402344 45.726562 77.5 45.613281 77.5 45.351562 C 77.5 44.757812 76.9375 43.949219 75.574219 43.949219 C 74.164062 43.949219 73.605469 44.820312 73.605469 45.386719 C 73.605469 45.628906 73.667969 45.726562 73.957031 45.726562 Z M 75.496094 51.007812 C 72.945312 51.007812 71.359375 49.261719 71.359375 46.5 C 71.359375 44.03125 72.851562 42.269531 75.511719 42.269531 C 78.011719 42.269531 79.441406 43.511719 79.441406 45.726562 C 79.441406 46.695312 79.136719 46.886719 78.507812 46.886719 C 78.0625 46.886719 74.292969 46.871094 73.925781 46.871094 C 73.570312 46.871094 73.539062 47.035156 73.539062 47.292969 C 73.539062 48.390625 74.375 49.214844 75.589844 49.214844 C 77.597656 49.214844 77.226562 47.90625 78.398438 47.90625 C 78.816406 47.90625 79.199219 48.195312 79.199219 48.746094 C 79.199219 49.554688 78.207031 51.007812 75.496094 51.007812 M 83.722656 49.359375 C 84.84375 49.359375 85.148438 48.957031 85.148438 48.550781 C 85.148438 47.988281 84.636719 47.859375 82.792969 47.550781 C 80.484375 47.164062 80 46.144531 80 45.015625 C 80 43.140625 81.765625 42.285156 83.578125 42.285156 C 86.046875 42.285156 87.089844 43.367188 87.089844 44.53125 C 87.089844 45.078125 86.703125 45.371094 86.046875 45.371094 C 85.597656 45.371094 85.339844 45.078125 85.210938 44.851562 C 84.84375 44.222656 84.332031 43.980469 83.5625 43.980469 C 82.648438 43.980469 82.132812 44.269531 82.132812 44.851562 C 82.132812 45.46875 82.40625 45.757812 84.21875 46.082031 C 86.878906 46.550781 87.359375 47.308594 87.359375 48.457031 C 87.359375 49.84375 86.175781 51.023438 83.496094 51.023438 C 80.851562 51.023438 79.90625 49.632812 79.90625 48.828125 C 79.90625 48.246094 80.148438 47.972656 80.707031 47.972656 C 81.734375 47.972656 81.574219 49.359375 83.722656 49.359375 "/>
<path style=" stroke:none;fill-rule:nonzero;fill:rgb(16.078431%,25.098039%,58.431373%);fill-opacity:1;" d="M 27.339844 33.320312 C 27.035156 33.320312 26.988281 33.402344 26.988281 33.59375 L 26.988281 36.632812 C 26.988281 37.199219 26.683594 37.3125 25.847656 37.3125 C 25.015625 37.3125 24.582031 37.230469 24.582031 36.617188 C 24.582031 36.210938 24.664062 33.367188 24.664062 31.835938 C 24.664062 30.285156 24.597656 27.503906 24.597656 27.003906 C 24.597656 26.503906 24.726562 26.308594 25.449219 26.324219 C 29.632812 26.40625 31.253906 26.40625 31.71875 26.40625 C 32.199219 26.40625 32.390625 26.566406 32.390625 27.421875 C 32.390625 28.117188 32.199219 28.457031 31.734375 28.457031 C 31.492188 28.457031 28.125 28.378906 27.515625 28.378906 C 27.148438 28.378906 27.003906 28.523438 27.003906 28.910156 L 27.003906 30.976562 C 27.003906 31.351562 27.179688 31.574219 27.597656 31.574219 L 31.398438 31.574219 C 32.007812 31.574219 32.183594 31.835938 32.183594 32.433594 C 32.183594 33.015625 32.085938 33.320312 31.414062 33.320312 L 27.339844 33.320312 M 35.214844 36.488281 C 35.214844 37.066406 34.988281 37.34375 34.074219 37.34375 C 33.226562 37.34375 32.921875 37.085938 32.921875 36.488281 C 32.921875 32.207031 32.984375 30.21875 32.984375 29.667969 C 32.984375 29.136719 33.191406 28.957031 33.867188 28.957031 C 34.539062 28.957031 34.699219 29.136719 34.796875 29.75 C 34.875 30.300781 34.925781 30.378906 35.039062 30.378906 C 35.308594 30.378906 35.597656 28.957031 37.25 28.957031 C 37.90625 28.957031 38.195312 29.199219 38.195312 29.910156 C 38.195312 30.507812 38.082031 31.042969 37.265625 31.042969 C 35.917969 31.042969 35.214844 31.851562 35.214844 33.484375 L 35.214844 36.488281 M 43.472656 33.820312 C 43.261719 33.820312 42.925781 34.160156 41.929688 34.371094 C 41.015625 34.5625 40.375 34.582031 40.375 35.226562 C 40.375 35.664062 40.777344 35.984375 41.386719 35.984375 C 42.878906 35.984375 43.613281 34.804688 43.613281 34.082031 C 43.613281 33.917969 43.566406 33.820312 43.472656 33.820312 Z M 43.664062 32.109375 C 43.664062 31.1875 43.183594 30.589844 42.09375 30.589844 C 40.425781 30.589844 40.472656 31.929688 40.390625 32.300781 C 40.328125 32.640625 40.054688 32.835938 39.300781 32.835938 C 38.4375 32.835938 38.210938 32.480469 38.210938 31.785156 C 38.210938 30.574219 38.917969 28.75 42.125 28.75 C 44.527344 28.75 45.859375 29.78125 45.859375 32.351562 C 45.859375 32.351562 45.84375 36.246094 45.84375 36.617188 C 45.84375 37.101562 45.683594 37.359375 44.847656 37.359375 C 44.304688 37.359375 44.113281 37.101562 44.03125 36.714844 C 43.902344 36.097656 43.902344 36.003906 43.792969 36.003906 C 43.519531 36.003906 43.070312 37.535156 40.648438 37.535156 C 39.15625 37.535156 38.132812 36.695312 38.132812 35.488281 C 38.132812 32.496094 43.664062 34.175781 43.664062 32.496094 L 43.664062 32.109375 M 53.089844 37.3125 C 52.175781 37.3125 51.902344 37.261719 51.902344 36.617188 C 51.902344 36.328125 51.953125 33.675781 51.953125 32.867188 C 51.953125 31.429688 51.582031 30.71875 50.445312 30.71875 C 49.5 30.71875 48.777344 31.527344 48.777344 33 C 48.777344 34.953125 48.792969 35.972656 48.792969 36.535156 C 48.792969 37.246094 48.519531 37.328125 47.589844 37.328125 C 46.804688 37.328125 46.484375 37.167969 46.484375 36.554688 C 46.484375 32.269531 46.53125 30.234375 46.53125 29.699219 C 46.53125 29.152344 46.742188 28.957031 47.414062 28.957031 C 48.023438 28.957031 48.199219 29.070312 48.34375 29.734375 C 48.441406 30.203125 48.503906 30.285156 48.601562 30.285156 C 48.890625 30.285156 49.066406 28.765625 51.292969 28.765625 C 52.914062 28.765625 54.179688 29.765625 54.179688 32.191406 C 54.179688 34.757812 54.226562 33.722656 54.226562 36.566406 C 54.226562 37.152344 53.941406 37.3125 53.089844 37.3125 M 54.515625 32.964844 C 54.515625 30.589844 56.007812 28.765625 58.765625 28.765625 C 61.347656 28.765625 62.484375 30.136719 62.484375 31.722656 C 62.484375 32.285156 62.070312 32.578125 61.410156 32.578125 C 60.996094 32.578125 60.675781 32.414062 60.546875 32.078125 C 60.175781 31.09375 60.046875 30.605469 58.6875 30.605469 C 57.484375 30.605469 56.683594 31.351562 56.683594 33.128906 C 56.683594 34.675781 57.46875 35.710938 58.847656 35.710938 C 60.851562 35.710938 60.464844 34.402344 61.636719 34.402344 C 62.050781 34.402344 62.4375 34.695312 62.4375 35.246094 C 62.4375 36.050781 61.476562 37.503906 58.765625 37.503906 C 55.929688 37.503906 54.515625 35.519531 54.515625 32.964844 M 68.949219 33.320312 C 68.949219 31.914062 68.484375 30.769531 66.78125 30.769531 C 65.324219 30.769531 64.796875 32.011719 64.796875 33.320312 C 64.796875 34.695312 65.453125 35.648438 66.847656 35.648438 C 68.257812 35.648438 68.949219 34.515625 68.949219 33.320312 Z M 62.648438 33.191406 C 62.648438 30.316406 64.058594 28.796875 66.800781 28.765625 C 69.507812 28.765625 71.03125 30.1875 71.03125 33.160156 C 71.03125 35.453125 69.542969 37.503906 66.894531 37.503906 C 64.28125 37.503906 62.648438 35.824219 62.648438 33.191406 M 77.527344 33.027344 C 77.527344 31.574219 76.757812 30.769531 75.601562 30.769531 C 74.671875 30.769531 73.773438 31.589844 73.773438 33.0625 C 73.773438 34.917969 74.511719 35.730469 75.652344 35.730469 C 76.789062 35.730469 77.527344 35.050781 77.527344 33.027344 Z M 73.726562 37.925781 C 73.726562 38.34375 73.757812 38.910156 73.757812 39.234375 C 73.757812 39.75 73.550781 40.007812 72.621094 40.007812 C 71.945312 40.007812 71.449219 39.863281 71.449219 39.234375 C 71.449219 34.917969 71.5 30.203125 71.5 29.652344 C 71.5 29.101562 71.609375 28.878906 72.445312 28.878906 C 73.070312 28.878906 73.214844 29.023438 73.390625 29.75 C 73.46875 30.074219 73.535156 30.171875 73.644531 30.171875 C 74.015625 30.171875 74.289062 28.78125 76.292969 28.78125 C 78.359375 28.78125 79.820312 30.316406 79.820312 33.222656 C 79.820312 35.984375 78.101562 37.535156 76.195312 37.535156 C 74.511719 37.535156 74.125 36.632812 73.871094 36.632812 C 73.773438 36.632812 73.726562 36.695312 73.726562 36.824219 L 73.726562 37.925781 M 88.1875 36.519531 C 88.1875 37.050781 87.933594 37.34375 87.082031 37.34375 C 86.265625 37.34375 85.898438 37.152344 85.898438 36.519531 C 85.898438 36.210938 85.929688 33.722656 85.929688 32.933594 C 85.929688 31.496094 85.558594 30.785156 84.4375 30.785156 C 83.507812 30.785156 82.800781 31.589844 82.800781 33.046875 L 82.800781 36.617188 C 82.800781 37.066406 82.5625 37.328125 81.757812 37.328125 C 81.101562 37.328125 80.527344 37.246094 80.527344 36.632812 C 80.527344 32.382812 80.539062 26.890625 80.539062 26.339844 C 80.539062 25.808594 80.765625 25.566406 81.597656 25.566406 C 82.417969 25.566406 82.691406 25.726562 82.691406 26.261719 L 82.691406 29.492188 C 82.691406 29.894531 82.738281 29.960938 82.835938 29.960938 C 83.089844 29.960938 83.300781 28.796875 85.285156 28.796875 C 86.683594 28.796875 88.171875 29.554688 88.171875 32.253906 L 88.1875 36.519531 M 94.90625 33.320312 C 94.90625 31.914062 94.441406 30.769531 92.742188 30.769531 C 91.285156 30.769531 90.753906 32.011719 90.753906 33.320312 C 90.753906 34.695312 91.414062 35.648438 92.808594 35.648438 C 94.21875 35.648438 94.90625 34.515625 94.90625 33.320312 Z M 88.605469 33.191406 C 88.605469 30.316406 90.015625 28.796875 92.757812 28.765625 C 95.46875 28.765625 96.992188 30.1875 96.992188 33.160156 C 96.992188 35.453125 95.5 37.503906 92.855469 37.503906 C 90.242188 37.503906 88.605469 35.824219 88.605469 33.191406 M 104 37.3125 C 103.085938 37.3125 102.8125 37.261719 102.8125 36.617188 C 102.8125 36.328125 102.859375 33.675781 102.859375 32.867188 C 102.859375 31.429688 102.492188 30.71875 101.351562 30.71875 C 100.40625 30.71875 99.6875 31.527344 99.6875 33 C 99.6875 34.953125 99.703125 35.972656 99.703125 36.535156 C 99.703125 37.246094 99.429688 37.328125 98.5 37.328125 C 97.714844 37.328125 97.394531 37.167969 97.394531 36.554688 C 97.394531 32.269531 97.441406 30.234375 97.441406 29.699219 C 97.441406 29.152344 97.648438 28.957031 98.324219 28.957031 C 98.933594 28.957031 99.109375 29.070312 99.253906 29.734375 C 99.347656 30.203125 99.414062 30.285156 99.511719 30.285156 C 99.800781 30.285156 99.976562 28.765625 102.203125 28.765625 C 103.824219 28.765625 105.089844 29.765625 105.089844 32.191406 C 105.089844 34.757812 105.136719 33.722656 105.136719 36.566406 C 105.136719 37.152344 104.847656 37.3125 104 37.3125 M 111.246094 32.222656 C 111.550781 32.222656 111.648438 32.109375 111.648438 31.851562 C 111.648438 31.253906 111.085938 30.445312 109.722656 30.445312 C 108.3125 30.445312 107.75 31.316406 107.75 31.882812 C 107.75 32.125 107.816406 32.222656 108.105469 32.222656 Z M 109.644531 37.503906 C 107.09375 37.503906 105.507812 35.757812 105.507812 33 C 105.507812 30.523438 107 28.765625 109.660156 28.765625 C 112.160156 28.765625 113.585938 30.007812 113.585938 32.222656 C 113.585938 33.191406 113.28125 33.382812 112.65625 33.382812 C 112.210938 33.382812 108.441406 33.367188 108.070312 33.367188 C 107.71875 33.367188 107.6875 33.53125 107.6875 33.789062 C 107.6875 34.890625 108.519531 35.710938 109.738281 35.710938 C 111.742188 35.710938 111.375 34.402344 112.546875 34.402344 C 112.960938 34.402344 113.347656 34.695312 113.347656 35.246094 C 113.347656 36.050781 112.351562 37.503906 109.644531 37.503906 M 118.191406 35.855469 C 119.3125 35.855469 119.617188 35.453125 119.617188 35.050781 C 119.617188 34.484375 119.101562 34.355469 117.261719 34.046875 C 114.949219 33.660156 114.46875 32.640625 114.46875 31.511719 C 114.46875 29.636719 116.234375 28.78125 118.046875 28.78125 C 120.515625 28.78125 121.558594 29.863281 121.558594 31.027344 C 121.558594 31.574219 121.171875 31.867188 120.515625 31.867188 C 120.066406 31.867188 119.808594 31.574219 119.679688 31.351562 C 119.3125 30.71875 118.800781 30.476562 118.03125 30.476562 C 117.117188 30.476562 116.601562 30.769531 116.601562 31.351562 C 116.601562 31.964844 116.875 32.253906 118.6875 32.578125 C 121.347656 33.046875 121.828125 33.804688 121.828125 34.953125 C 121.828125 36.339844 120.644531 37.519531 117.964844 37.519531 C 115.320312 37.519531 114.375 36.132812 114.375 35.324219 C 114.375 34.742188 114.613281 34.46875 115.175781 34.46875 C 116.203125 34.46875 116.042969 35.855469 118.191406 35.855469 "/>
</g>
</svg>
