<svg xmlns="http://www.w3.org/2000/svg" height="491.333" width="891.813" xml:space="preserve"><path style="fill:#f9e80d;fill-opacity:1;fill-rule:nonzero;stroke:none" d="m14.176 1344.68 153.656 403.47 375.637 77.38 76.797 385.15 102.445 52.45-230.488 206.02 307.312 369.11-59.746 231.78 349.951 111.58 384.39 185.04h333.18l230.48-142.14 187.76 351.94h128.09l93.86 94.41 179.2-68.67-42.63-128.76L2865.7 3173l-76.79-77.2 179.24-300.45-179.24-25.79-68.35-261.79 546.33-373.45 247.63-755.35-452.49-266.06 580.49-442.371L2140.21 14.172l-368.22 168.437-383.39 37.551-256.16 360.5v206.039l-264.526 85.883 76.738 300.408-153.683 25.73-153.66-144.42-623.133 290.38" transform="matrix(.13333 0 0 -.13333 0 491.333)"/><path style="fill:none;stroke:#f9e80d;stroke-width:28.3465004;stroke-linecap:round;stroke-linejoin:round;stroke-miterlimit:10;stroke-dasharray:none;stroke-opacity:1" d="m14.176 1344.68 153.656 403.47 375.637 77.38 76.797 385.15 102.445 52.45-230.488 206.02 307.312 369.11-59.746 231.78 349.951 111.58 384.39 185.04h333.18l230.48-142.14 187.76 351.94h128.09l93.86 94.41 179.2-68.67-42.63-128.76L2865.7 3173l-76.79-77.2 179.24-300.45-179.24-25.79-68.35-261.79 546.33-373.45 247.63-755.35-452.49-266.06 580.49-442.371L2140.21 14.172l-368.22 168.437-383.39 37.551-256.16 360.5v206.039l-264.526 85.883 76.738 300.408-153.683 25.73-153.66-144.42z" transform="matrix(.13333 0 0 -.13333 0 491.333)"/><path style="fill:#fff;fill-opacity:1;fill-rule:nonzero;stroke:none" d="M3437.62 1702.37c-3.07.56-6.31.27-9.6.27-92.08 0-102.02-62.81-102.02-89.19V1470.6c-42.64 41.7-106.59 64.67-187.93 64.67-68.59 0-126.6-19.47-170.29-54.55-6.01 26.46-29.1 44.53-59.36 44.53h-56.19c-54.97 0-71.52-31.16-86.08-58.54-9.8-18.34-18.12-34.06-25.23-47.51-3.09-5.85-6.06-11.45-8.87-16.75-2.47 4.82-5.17 10.11-8 15.67-8.91 17.49-19.02 37.32-27.89 53.64-14.8 27.69-36.79 56-87.79 56h-51.97c-18.92 0-35.18-6.64-46.63-17.78-17.12 10.14-40.69 15.27-70.67 15.27-84.31 0-102-43.18-102-79.4 0-9.26.19-19.59.46-33.29.5-25.87 1.25-64.96 1.25-133.47 0-95.8-32.46-95.8-46.32-95.8-9.22 0-33.72 0-33.72 68.12 0 26.59.65 90.47 1.13 137.11.29 28.28.52 50.82.52 56.46 0 82.78-77.41 82.78-102.84 82.78-34.73 0-58.03-7.86-73.58-19.71-15.1 11.27-35.39 17.2-60.52 17.2-46.13 0-78.05-16.41-100.06-35.03-14.47 24.2-39.06 35.03-76.75 35.03-20.55 0-36.41-3.49-48.78-9.17-21.53 78.78-102.46 154.14-333.44 154.14-125.03 0-228.52-9.45-228.52-125.5 0-21.35.66-48.74 1.3-75.24.62-25.92 1.21-50.42 1.21-68.88 0-19.06-.62-77.35-1.22-133.71-.63-60.23-1.29-122.49-1.29-144.56 0-115.81 127.93-125.4 270.46-125.4 129.78 0 206.79 29.57 251.09 71.04 7.08-29.88 30.6-62.72 100.08-62.72 67.68 0 102 29.26 102 86.98v155.83c0 77.51 33.42 84 64.76 84 9.33 0 20.41 1.08 31.56 4.33.04-3.7.07-7.15.11-10.56.2-19.14.4-37.82.4-102.86 0-197.42 117.99-226.9 188.32-226.9 62.55 0 101.8 20.45 126.79 43.28 16.48-21.75 41.92-32.43 76.85-32.43 22.07 0 41.03 5.31 55.99 14.85 12.17-10.82 28.88-17.33 47.91-17.33 9.82 0 15.91-.2 22-.41 6.89-.23 13.78-.45 24.9-.45 49.82 0 70.59 19.88 87.51 52.05l44.66 75.93 44.28-74.13c16.68-32.75 37.6-52.99 88.36-52.99 10 0 17.85-.25 24.99-.46 6.73-.22 12.91-.4 19.47-.4 42.23 0 63.68 19.29 71.55 41.09 41.88-30.78 95.2-47.74 157.23-47.74 103.44 0 167.81 35.46 202.73 77.17 21.87-49.31 68.55-78.03 132.52-78.03 50.67 0 79.67 15.78 96.25 34.97 25.01-22.48 59.51-34.97 101.55-34.97 68.23 0 97.22 28.62 109.37 55.63 43.13-35.22 99.7-54.77 166.3-54.77 112 0 178.22 41.56 210.82 87.59 31.1-46.14 96.04-88.45 207.39-88.45 180.45 0 244.47 94.67 244.47 175.75 0 60.99-25.39 99.06-69.01 124.39 34.23 12.4 54.76 40.83 54.76 79.24 0 73.34-59.19 158.98-226.01 158.98-95.32 0-170.17-37.81-206.08-98.11-39.59 63.34-114.05 98.95-215.47 98.95-101.52 0-179.86-42.67-222.83-115.51.54 66.79 1.03 128.86 1.23 165 15.45-10.24 37.78-17.37 70.46-17.37 67.68 0 102 27.84 102 82.72 0 8.2-.37 19.3-.78 31.11-.35 10.26-.74 21.11-.86 30.89 21.19-9.27 49.28-16.48 86.51-16.48 69.34 0 139.15 33.15 183.78 97.59v-8.21c0-35.82 18.57-78.52 107.03-78.52 87.51 0 96.96 55.52 96.96 79.39v185.2c0 36.15 11.29 74.79 42.97 74.79 19.79 0 35.43 0 35.43-68.93 0-25.04-.64-84.87-1.1-128.56-.3-28.33-.54-51.32-.54-57.5 0-38.9 18.13-85.26 104.54-85.26 77.71 0 96.5 42.34 99.69 74.22 46.24-52.63 115.96-82.6 202-82.6 86.16 0 151.43 34.71 194.89 86.28 2.3-51.07 35.89-77.03 100.1-77.03 36.82 0 105.38 0 105.38 83.55 0 10.33-.11 23.57-.24 40.79-.25 31.68-.6 76.98-.6 142.73 0 36.58 11.72 75.66 44.62 75.66 21.06 0 36.29 0 36.29-68.95 0-25.86-1.01-89.95-1.73-136.74-.46-28.87-.81-51.96-.81-57.65 0-78.55 65.44-78.55 104.54-78.55 24.12 0 95.21.19 101.38 71.11 45.2-51.8 111.87-81.2 193.64-81.2 122.93 0 190.71 50.08 219.4 101.21 27.01-51.07 93.32-102.02 215.55-102.02 180.45 0 244.48 94.69 244.48 175.78 0 60.99-25.4 99.05-69.02 124.4 31.6 11.43 51.32 36.63 54.22 70.6 11.98-9.51 21.11-20.29 31.73-32.96 11.86-14.14 25.31-30.17 45.46-47.33 24.44-20.85 57.46-32.82 90.62-32.82 37.16 0 70.51 15.11 93.91 42.59 52.15 61.37 33.98 140.14-13.76 180.87-11.91 10.11-25.54 18.36-40.68 24.89 36.48 21.56 63.93 59.45 63.93 107.21 0 80.62-64.92 128.8-127.69 128.8-34.31 0-67.46-12.22-97.79-31.21 18.59 50.53 9.18 113.94-40.4 150.44-23.17 16.99-49.66 25.98-76.61 25.98-40.09 0-78.52-19.68-102.8-52.65-50.23-68.34-36.87-174.98-7.61-251.97 6.64-17.58 14.43-34.28 22.96-49.51-20.06 3.4-42.23 5.29-66.79 5.29-103.15 0-182.36-44.24-214.12-113.39-36.71 72.91-114.81 114.23-224.12 114.23-97.55 0-173.71-39.39-217.66-107.1-34.32 77.18-104.85 107.1-172.07 107.1-63.79 0-103.39-20.38-128.54-42.34-14.84 22.75-38.1 32.29-74.26 32.29-64.91 0-84.32-34.63-87.89-68.25-44.72 51.16-113.21 78.29-203.47 78.29-102.43-1.19-176.48-38.13-218.57-106.42-42.9 95.38-136.92 104.76-171.47 104.76-40.69 0-70.81-8.15-93.22-19.07v108.1c0 78.56-74.9 78.56-99.51 78.56-80.87 0-97.85-44.98-97.85-82.72 0-7.54-.05-33-.13-70.46-.07-29.2-.15-65.86-.23-106.82-39.49 59.28-101.61 93.24-179.19 93.24-62.07 0-100.53-21.47-124.99-42.74-13.54 23.93-35.46 37.72-76.13 37.72-37.68 0-87.07-7.96-91.52-73.11-44.69 51.59-113.36 78.96-204 78.96-96.47-1.12-167.74-34-210.9-94.84-33.43 53.28-98.73 94.85-208.5 94.85-96.68 0-173.91-39.1-219.43-105-34.66 75.6-104.48 105-171.07 105-63.77 0-103.37-20.37-128.53-42.31-14.83 22.72-38.1 32.26-74.3 32.26-60.26 0-81.28-29.88-86.85-61.06-35.23 42.38-94.02 71.95-189.64 71.95-79.13 0-136.11-19.53-175.27-49.53-14.55 25.19-41.54 38.64-79.52 38.64-46.11 0-78.02-16.41-100.02-35.03-14.49 24.2-39.08 35.03-76.8 35.03-16.16 0-29.36-2.2-40.34-5.87 3.58 11.66 5.76 25.73 5.76 42.97 0 23.57 0 95.29-77.73 95.29-72.02 0-181.99 1.4-326.73 4.18-1.77.04-3.48.06-5.14.06-54.88 0-82.71-26.17-82.71-77.77 0-9.52.44-34.74 1.01-66.89.99-56.02 2.34-132.75 2.34-183.65 0-52.13-1.85-134.92-3.08-189.71-.66-29.1-1.14-51.12-1.14-58.35 0-78.55 78.99-78.55 108.73-78.55 27.91 0 102.03 0 102.03 77.68v129.3h188.8c13.99 0 26.21 1.97 36.66 5.83-.24-37.29-.4-79.54-.4-127.55 0-32.48 13.36-86.97 102.84-86.97 67.7 0 102.03 29.25 102.03 86.97v155.83c0 77.57 33.43 84.07 64.76 84.07 2.23 0 4.58.06 7 .2 1.04-47.37 21.54-71.8 47.62-83.53-30.63-21.4-51.88-54-51.88-104.67 0-86.26 73.21-148.86 174.07-148.86 72.11 0 117.8 22.82 146.88 45.89 14.54-23.92 39.49-36.74 72.68-36.74 33.92 0 56.17 8.33 70.52 20.78 16.72-12.64 40.95-19.07 72.77-19.07 36.81 0 105.35 0 105.35 83.55 0 10.33-.1 23.57-.24 40.79-.25 31.68-.6 76.98-.6 142.73 0 36.58 11.72 75.66 44.61 75.66 21.06 0 36.27 0 36.27-68.95 0-25.86-.99-89.95-1.72-136.75-.45-28.86-.8-51.95-.8-57.64 0-78.55 65.44-78.55 104.54-78.55 23.87 0 93.77.1 101.28 68.72 46.16-50.32 113.34-78.81 195.39-78.81 116.34 0 182.92 45.5 213.57 94.03 35.65-46.35 87.9-77.31 152.54-88.9" transform="matrix(.13333 0 0 -.13333 0 491.333)"/><path style="fill:#e41838;fill-opacity:1;fill-rule:nonzero;stroke:none" d="M6324.09 2543.3c-27.32 0-53.59-13.53-70.29-36.2-40.67-55.34-26.7-149.73-2.38-213.74 9.61-25.43 22.12-49.31 35.39-67.83.2 16.56 3.23 39.11 15.13 64.76 13.71 29.61 31.13 46.46 49.57 64.3 12.7 12.28 25.84 24.98 39.47 43.56 23.34 31.7 31.38 93.47-14.19 127.01-16.4 12.03-34.14 18.14-52.7 18.14M6538.89 2398.09c-68.69 0-136.47-67.14-173.64-124.63-14.74-22.72-26.54-46.93-33.63-68.64 13.52 9.69 33.5 20.56 61.12 26.13 11.18 2.26 22.04 3.37 33.17 3.37 17.07 0 32.08-2.56 47.97-5.26 17.41-2.97 35.42-6.03 58.5-6.03 39.33 0 93.83 30.1 93.83 86.63 0 57.44-44.99 88.43-87.32 88.43M6617.16 2146.82c-32.06 27.22-77.98 32.94-110.85 32.94-44.21 0-83.02-9.66-102.23-15.41-10.98-3.29-21.61-7.21-31.84-11.42 7.51-11.13 13.11-22.81 16.96-34.65 2.77-1.35 5.53-2.56 8.29-4.08 28.5-15.81 44.07-34.36 60.54-54.01 11.37-13.55 23.12-27.57 40.72-42.54 17.01-14.52 41.09-23.18 64.43-23.18 17.78 0 43.18 4.92 63.17 28.38 37.15 43.72 23 96.51-9.19 123.97" transform="matrix(.13333 0 0 -.13333 0 491.333)"/><path style="fill:#e51635;fill-opacity:1;fill-rule:nonzero;stroke:none" d="M6324.09 2543.3c-27.32 0-53.59-13.53-70.29-36.2-40.67-55.34-26.7-149.73-2.38-213.74 9.61-25.43 22.12-49.31 35.39-67.83.2 16.56 3.23 39.11 15.13 64.76 13.71 29.61 31.13 46.46 49.57 64.3 12.7 12.28 25.84 24.98 39.47 43.56 23.34 31.7 31.38 93.47-14.19 127.01-16.4 12.03-34.14 18.14-52.7 18.14M6538.89 2398.09c-68.69 0-136.47-67.14-173.64-124.63-14.74-22.72-26.54-46.93-33.63-68.64 13.52 9.69 33.5 20.56 61.12 26.13 11.18 2.26 22.04 3.37 33.17 3.37 17.07 0 32.08-2.56 47.97-5.26 17.41-2.97 35.42-6.03 58.5-6.03 39.33 0 93.83 30.1 93.83 86.63 0 57.44-44.99 88.43-87.32 88.43M6617.16 2146.82c-32.06 27.22-77.98 32.94-110.85 32.94-44.21 0-83.02-9.66-102.23-15.41-10.98-3.29-21.61-7.21-31.84-11.42 7.51-11.13 13.11-22.81 16.96-34.65 2.77-1.35 5.53-2.56 8.29-4.08 28.5-15.81 44.07-34.36 60.54-54.01 11.37-13.55 23.12-27.57 40.72-42.54 17.01-14.52 41.09-23.18 64.43-23.18 17.78 0 43.18 4.92 63.17 28.38 37.15 43.72 23 96.51-9.19 123.97" transform="matrix(.13333 0 0 -.13333 0 491.333)"/><path style="fill:#c4c5c5;fill-opacity:1;fill-rule:nonzero;stroke:none" d="M1401.62 1372.1c0-18.44 7.54-23.47 86.32-23.47 103.03 0 139.94 34.39 139.94 84.65 0 50.26-40.23 84.65-151.67 84.65-57.02 0-74.59-6.74-74.59-35.2zm72.89-91.33c-58.68 0-67.02-2.48-71.21-27.62-4.16-23.53 0-66.24 0-83.01 0-13.41 10.92-33.53 88.84-33.53 110.6 0 141.61 28.5 141.61 74.56 0 42.79-37.69 69.6-159.24 69.6zm31.88-241.32c-186.04 0-227.94 26.76-227.94 82.88 0 42.78 2.51 238.9 2.51 278.27 0 38.55-2.51 103.08-2.51 144.12 0 56.99 22.59 82.98 186 82.98 214.56 0 297.5-67.03 297.5-162.6 0-119.83-97.19-133.23-97.19-144.97 0-16.76 104.77-20.92 104.77-117.34 0-72.88-37.75-163.34-263.14-163.34M1917.04 1092.23c0-30.18-11.74-44.46-59.48-44.46-44.39 0-60.34 13.41-60.34 44.46 0 222.07 3.35 325.12 3.35 353.62 0 27.63 10.89 36.88 46.1 36.88 35.17 0 43.54-9.25 48.57-41.07 4.23-28.47 6.71-32.68 12.61-32.68 14.22 0 29.3 73.75 115.63 73.75 34.36 0 49.45-12.57 49.45-49.45 0-31.01-5.9-58.7-48.61-58.7-70.4 0-107.28-41.84-107.28-126.52v-155.83M2448.35 1049.44c-36.85 0-47.74 15.09-53.64 41.11-4.16 18.44-4.16 34.33-11.71 34.33-14.25 0-18.41-86.3-138.29-86.3-98.03 0-145.8 61.16-145.8 184.39 0 134.04-.84 72.02-.84 220.34 0 27.66 11.73 41.94 59.51 41.94 42.74 0 60.32-7.58 60.32-40.27 0-15.05-1.65-150.86-1.65-193.57 0-73.76 27.66-110.64 76.24-110.64 59.5 0 88.84 46.14 88.84 138.32 0 103.93-1.71 139.94-1.71 166.76 0 25.96 15.09 36.88 59.48 36.88 42.74 0 61.99-7.57 61.99-38.56 0-50.28-2.49-321.84-2.49-350.27 0-27.69-15.11-44.46-50.25-44.46M2743.28 1194.47c-3.36 6.71-5.84 8.32-11.71 8.32-5.87 0-9.22-.81-12.57-8.32l-69.53-118.2c-11.74-22.6-20.15-30.18-50.32-30.18-20.96 0-25.99.87-46.9.87-17.61 0-25.99 10.06-25.99 20.93 0 14.28 6.71 26.82 39.39 69.53 30.18 40.23 51.1 68.79 65.38 89.71 15.05 21.8 20.08 31.85 20.08 44.45 0 10.8-1.64 15.09-20.95 43.53-32.66 48.6-69.53 100.56-83.81 121.49-8.39 11.77-11.71 21.79-11.71 30.21 0 11.7 7.55 18.44 21.76 18.44h51.97c25.14 0 36.87-8.42 50.29-33.53 15.95-29.34 36.03-70.37 45.26-87.14 12.56-23.47 20.91-38.55 27.65-38.55 10.06 0 20.15 23.47 72.08 120.63 14.25 26.82 20.09 36.07 48.58 36.07h56.19c13.38 0 18.44-6.73 18.44-15.92 0-15.09-10.06-26.83-26.02-51.94-12.57-19.3-24.27-35.2-37.68-55.32-36.07-53.63-53.64-68.72-53.64-84.62 0-11.79 2.48-17.62 46.94-83 32.65-47.74 59.47-80.46 68.69-93 11.73-15.96 15.92-22.66 15.92-33.53 0-10.93-7.54-19.31-32.65-19.31-13.44 0-25.15.87-44.46.87-31.01 0-39.36 7.51-51.09 30.98l-69.59 116.53" transform="matrix(.13333 0 0 -.13333 0 491.333)"/><path style="fill:#c4c5c5;fill-opacity:1;fill-rule:nonzero;stroke:none" d="M3221.01 1313.43c15.95 0 20.92 5.84 20.92 19.31 0 30.97-29.3 72.89-100.54 72.89-73.73 0-103.06-45.21-103.06-74.57 0-12.6 3.35-17.63 18.44-17.63zm-83.81-273.98c-133.24 0-216.21 90.46-216.21 233.81 0 128.14 77.95 219.49 217.08 219.49 130.68 0 205.3-64.53 205.3-179.32 0-50.29-15.95-60.28-48.6-60.28-23.48 0-220.4.81-239.71.81-18.44 0-20.12-8.39-20.12-21.8 0-56.99 43.59-99.71 107.28-99.71 104.74 0 85.49 67.86 146.68 67.86 21.79 0 41.87-15.08 41.87-43.58 0-41.85-51.96-117.28-193.57-117.28M3368.52 1613.45c0 29.3 15.96 45.25 59.5 45.25 40.21 0 56.97-10.09 56.97-46.96 0-49.41-3.35-419.81-3.35-460.85 0-15.95 3.35-21.79 14.27-21.79 5.87 0 10.06 1.68 19.25 1.68 21.79 0 32.72-13.42 32.72-38.55 0-35.21-24.34-53.65-75.43-53.65-70.4 0-103.93 42.72-103.93 106.41v468.46M3566.31 1613.45c0 29.3 15.9 45.25 59.49 45.25 40.25 0 56.99-10.09 56.99-46.96 0-49.41-3.36-419.81-3.36-460.85 0-15.95 3.36-21.79 14.29-21.79 5.83 0 10.02 1.68 19.23 1.68 21.8 0 32.7-13.42 32.7-38.55 0-35.21-24.31-53.65-75.4-53.65-70.41 0-103.94 42.72-103.94 106.41v468.46" transform="matrix(.13333 0 0 -.13333 0 491.333)"/><path style="fill:#c4c5c5;fill-opacity:1;fill-rule:nonzero;stroke:none" d="M4029.77 1313.43c15.89 0 20.92 5.84 20.92 19.31 0 30.97-29.33 72.89-100.57 72.89-73.7 0-103.06-45.21-103.06-74.57 0-12.6 3.36-17.63 18.43-17.63zm-83.85-273.98c-133.22 0-216.2 90.46-216.2 233.81 0 128.14 77.91 219.49 217.07 219.49 130.72 0 205.29-64.53 205.29-179.32 0-50.29-15.93-60.28-48.62-60.28-23.46 0-220.39.81-239.64.81-18.43 0-20.11-8.39-20.11-21.8 0-56.99 43.58-99.71 107.24-99.71 104.74 0 85.49 67.86 146.68 67.86 21.79 0 41.91-15.08 41.91-43.58 0-41.85-51.97-117.28-193.62-117.28M4375.85 1124.88c58.65 0 74.59 20.98 74.59 41.91 0 29.29-26.81 36-123.17 51.96-120.68 20.12-145.83 72.88-145.83 131.55 0 97.23 92.2 141.61 186.9 141.61 129.05 0 183.49-56.12 183.49-116.46 0-28.5-20.12-43.58-54.44-43.58-23.47 0-36.89 15.08-43.59 26.81-19.3 32.66-46.06 45.27-86.3 45.27-47.8 0-74.58-15.09-74.58-45.27 0-31.84 14.24-46.93 108.92-63.69 139.09-24.28 164.24-63.63 164.24-123.17 0-72.08-62.02-133.24-201.95-133.24-138.27 0-187.72 72.08-187.72 113.99 0 30.18 12.61 44.39 41.91 44.39 53.64 0 45.26-72.08 157.53-72.08" transform="matrix(.13333 0 0 -.13333 0 491.333)"/><path style="fill:#294095;fill-opacity:1;fill-rule:nonzero;stroke:none" d="M1429 1956.83c-15.96 0-18.44-4.19-18.44-14.25v-157.57c0-29.3-15.96-35.17-59.51-35.17s-66.21 4.16-66.21 36.04c0 20.96 4.22 168.47 4.22 248.06 0 80.43-3.35 224.56-3.35 250.54 0 26.01 6.7 36.04 44.39 35.2 218.72-4.19 303.37-4.19 327.67-4.19 25.15 0 35.21-8.38 35.21-52.77 0-36.04-10.06-53.64-34.37-53.64-12.57 0-188.51 4.15-220.39 4.15-19.28 0-26.79-7.51-26.79-27.62v-107.28c0-19.28 9.19-31.01 30.98-31.01h198.6c31.85 0 41.04-13.38 41.04-44.39 0-30.18-5-46.1-40.17-46.1H1429M1840.49 1792.59c0-30.14-11.74-44.45-59.51-44.45-44.42 0-60.32 13.43-60.32 44.45 0 222.1 3.36 325.13 3.36 353.63 0 27.65 10.86 36.88 46.06 36.88 35.21 0 43.59-9.23 48.62-41.07 4.16-28.5 6.7-32.69 12.6-32.69 14.22 0 29.3 73.76 115.6 73.76 34.39 0 49.48-12.58 49.48-49.46 0-31.01-5.9-58.63-48.61-58.63-70.41 0-107.28-41.91-107.28-126.59v-155.83M2272.09 1930.82c-10.92 0-28.5-17.57-80.46-28.47-47.8-10.02-81.33-10.86-81.33-44.45 0-22.57 20.98-39.3 52.83-39.3 77.95 0 116.47 61.16 116.47 98.84 0 8.35-2.48 13.38-7.51 13.38zm10.03 88.87c0 47.74-25.11 78.75-82.11 78.75-87.16 0-84.61-69.53-88.84-88.78-3.35-17.63-17.57-27.69-56.99-27.69-45.26 0-56.99 18.41-56.99 54.45 0 62.89 36.87 157.57 204.5 157.57 125.69 0 195.25-53.67 195.25-186.87 0 0-.84-201.96-.84-221.24 0-25.14-8.35-38.58-51.96-38.58-28.47 0-38.55 13.44-42.74 33.55-6.71 31.89-6.71 36.89-12.55 36.89-14.27 0-37.71-79.59-164.27-79.59-77.91 0-131.55 43.57-131.55 106.34 0 155.05 289.09 67.89 289.09 155.05v20.15M2774.84 1749.84c-47.74 0-62.02 2.49-62.02 36.04 0 15.03 2.52 152.51 2.52 194.39 0 74.59-19.25 111.47-78.79 111.47-49.42 0-87.13-41.91-87.13-118.18 0-101.35.84-154.21.84-183.52 0-36.88-14.25-41.04-62.83-41.04-41.04 0-57.77 8.38-57.77 40.17 0 222.11 2.48 327.71 2.48 355.4 0 28.47 10.9 38.53 46.04 38.53 31.85 0 41.1-5.87 48.61-40.24 5.03-24.27 8.38-28.49 13.41-28.49 15.09 0 24.34 78.78 140.81 78.78 84.62 0 150.83-51.96 150.83-177.65 0-133.26 2.51-79.59 2.51-227.1 0-30.21-15.08-38.56-59.51-38.56M2849.44 1975.27c0 123.17 77.94 217.88 222.07 217.88 134.94 0 194.45-71.24 194.45-153.34 0-29.37-21.79-44.42-56.16-44.42-21.79 0-38.55 8.38-45.26 25.98-19.27 51.06-25.98 76.2-97.22 76.2-62.86 0-104.74-38.52-104.74-130.71 0-80.37 41.07-134.07 113.15-134.07 104.74 0 84.62 67.88 145.84 67.88 21.73 0 41.84-15.05 41.84-43.61 0-41.87-50.26-117.3-191.9-117.3-148.32 0-222.07 103.12-222.07 235.51M3603.69 1956.83c0 72.89-24.3 132.39-113.15 132.39-76.24 0-103.89-64.53-103.89-132.39 0-71.21 34.36-120.66 107.28-120.66 73.69 0 109.76 58.61 109.76 120.66zm-329.35 6.71c0 149.18 73.79 227.94 217.07 229.61 141.58 0 221.2-73.75 221.2-227.94 0-119.01-77.91-225.45-216.2-225.45-136.58 0-222.07 87.16-222.07 223.78M4052.06 1971.95c0 75.37-40.2 117.27-100.58 117.27-48.57 0-95.55-42.71-95.55-118.98 0-96.35 38.63-138.32 98.1-138.32 59.47 0 98.03 35.26 98.03 140.03zM3853.45 1718c0-21.8 1.68-51.16 1.68-67.89 0-26.82-10.87-40.2-59.48-40.2-35.2 0-61.18 7.48-61.18 40.2 0 223.78 2.52 468.48 2.52 496.95 0 28.52 5.86 40.23 49.44 40.23 32.66 0 40.21-7.55 49.42-45.26 4.19-16.77 7.54-21.79 13.41-21.79 19.28 0 33.53 72.08 138.29 72.08 108.09 0 184.33-79.6 184.33-230.49 0-143.23-89.65-223.68-189.36-223.68-87.96 0-108.14 46.86-121.49 46.86-5.1 0-7.58-3.29-7.58-9.99V1718M4609.35 1790.88c0-27.6-13.38-42.74-57.76-42.74-42.79 0-62.02 10.05-62.02 42.74 0 15.96 1.64 145.03 1.64 186.06 0 74.6-19.28 111.44-77.95 111.44-48.61 0-85.49-41.87-85.49-117.3v-185.2c0-23.43-12.54-36.88-54.44-36.88-34.37 0-64.51 4.16-64.51 36.01 0 220.4.8 505.33.8 533.86 0 27.63 11.74 40.2 55.33 40.2 42.77 0 56.99-8.38 56.99-36.04v-167.56c0-21.02 2.51-24.34 7.54-24.34 13.41 0 24.3 60.35 128.2 60.35 72.95 0 150.83-39.4 150.83-179.33l.84-221.27M4960.52 1956.83c0 72.89-24.27 132.39-113.11 132.39-76.27 0-103.93-64.53-103.93-132.39 0-71.21 34.37-120.66 107.29-120.66 73.75 0 109.75 58.61 109.75 120.66zm-329.34 6.71c0 149.18 73.75 227.94 217.04 229.61 141.68 0 221.27-73.75 221.27-227.94 0-119.01-77.92-225.45-216.21-225.45-136.61 0-222.1 87.16-222.1 223.78M5435.72 1749.84c-47.78 0-62.02 2.49-62.02 36.04 0 15.03 2.54 152.51 2.54 194.39 0 74.59-19.31 111.47-78.81 111.47-49.46 0-87.14-41.91-87.14-118.18 0-101.35.84-154.21.84-183.52 0-36.88-14.25-41.04-62.86-41.04-41.04 0-57.81 8.38-57.81 40.17 0 222.11 2.55 327.71 2.55 355.4 0 28.47 10.87 38.53 46.07 38.53 31.78 0 41.03-5.87 48.58-40.24 5.03-24.27 8.35-28.49 13.44-28.49 15.09 0 24.31 78.78 140.78 78.78 84.65 0 150.83-51.96 150.83-177.65 0-133.26 2.48-79.59 2.48-227.1 0-30.21-15.06-38.56-59.47-38.56M5814.55 2013.82c15.89 0 20.92 5.87 20.92 19.28 0 30.98-29.3 72.92-100.54 72.92-73.76 0-103.09-45.29-103.09-74.59 0-12.61 3.35-17.61 18.44-17.61zm-83.81-274.06c-133.24 0-216.24 90.57-216.24 233.8 0 128.27 77.98 219.59 217.11 219.59 130.68 0 205.27-64.57 205.27-179.33 0-50.28-15.92-60.31-48.6-60.31-23.44 0-220.37.84-239.68.84-18.44 0-20.12-8.42-20.12-21.82 0-57.03 43.59-99.74 107.29-99.74 104.73 0 85.48 67.88 146.67 67.88 21.75 0 41.87-15.05 41.87-43.61 0-41.87-51.96-117.3-193.57-117.3M6177.43 1825.27c58.67 0 74.56 20.93 74.56 41.91 0 29.31-26.82 36.04-123.18 51.94-120.69 20.11-145.83 72.91-145.83 131.58 0 97.19 92.19 141.62 186.87 141.62 129.07 0 183.58-56.16 183.58-116.47 0-28.53-20.17-43.59-54.51-43.59-23.44 0-36.87 15.06-43.54 26.79-19.28 32.69-46.11 45.26-86.33 45.26-47.75 0-74.6-15.09-74.6-45.26 0-31.85 14.25-46.9 108.96-63.66 139.09-24.31 164.24-63.73 164.24-123.18 0-72.04-62.02-133.26-201.96-133.26-138.25 0-187.74 72.08-187.74 113.95 0 30.18 12.6 44.45 41.94 44.45 53.61 0 45.23-72.08 157.54-72.08" transform="matrix(.13333 0 0 -.13333 0 491.333)"/></svg>