<?xml version="1.0" encoding="UTF-8" standalone="no"?>
<svg
   xmlns:dc="http://purl.org/dc/elements/1.1/"
   xmlns:cc="http://creativecommons.org/ns#"
   xmlns:rdf="http://www.w3.org/1999/02/22-rdf-syntax-ns#"
   xmlns:svg="http://www.w3.org/2000/svg"
   xmlns="http://www.w3.org/2000/svg"
   xmlns:sodipodi="http://sodipodi.sourceforge.net/DTD/sodipodi-0.dtd"
   xmlns:inkscape="http://www.inkscape.org/namespaces/inkscape"
   width="17.841635mm"
   height="16.176241mm"
   viewBox="0 0 17.841635 16.17624"
   version="1.1"
   id="svg8037"
   inkscape:version="1.0.1 (1.0.1+r73)"
   sodipodi:docname="design_10.svg">
  <defs
     id="defs8031" />
  <sodipodi:namedview
     id="base"
     pagecolor="#ffffff"
     bordercolor="#666666"
     borderopacity="1.0"
     inkscape:pageopacity="0.0"
     inkscape:pageshadow="2"
     inkscape:zoom="1.33"
     inkscape:cx="-7.8287057"
     inkscape:cy="8.0229954"
     inkscape:document-units="mm"
     inkscape:current-layer="layer1"
     inkscape:document-rotation="0"
     showgrid="false"
     fit-margin-top="1"
     fit-margin-right="1"
     fit-margin-bottom="1"
     fit-margin-left="1"
     inkscape:window-width="1853"
     inkscape:window-height="1025"
     inkscape:window-x="67"
     inkscape:window-y="27"
     inkscape:window-maximized="1" />
  <metadata
     id="metadata8034">
    <rdf:RDF>
      <cc:Work
         rdf:about="">
        <dc:format>image/svg+xml</dc:format>
        <dc:type
           rdf:resource="http://purl.org/dc/dcmitype/StillImage" />
        <dc:title></dc:title>
      </cc:Work>
    </rdf:RDF>
  </metadata>
  <g
     inkscape:label="Capa 1"
     inkscape:groupmode="layer"
     id="layer1"
     transform="translate(-107.90469,-74.427373)">
    <g
       id="g10798"
       transform="matrix(0.35277777,0,0,-0.35277777,-61.106475,200.66169)">
      <g
         id="g1254"
         transform="translate(496.2766,323.4006)">
        <path
           d="M 0,0 9.823,-4.087 19.647,0 9.823,4.086 Z m 9.823,-4.64 c -0.034,0 -0.069,0.007 -0.101,0.02 l -10.514,4.375 c -0.099,0.041 -0.164,0.138 -0.164,0.245 0,0.107 0.065,0.204 0.164,0.245 L 9.722,4.619 c 0.064,0.027 0.138,0.027 0.203,0 L 20.438,0.245 c 0.1,-0.041 0.164,-0.138 0.164,-0.245 0,-0.107 -0.064,-0.204 -0.164,-0.245 L 9.925,-4.62 C 9.893,-4.633 9.857,-4.64 9.823,-4.64"
           style="fill:#41404d;fill-opacity:1;fill-rule:nonzero;stroke:none"
           id="path1256" />
      </g>
      <g
         id="g1258"
         transform="translate(506.0998,319.0261)">
        <path
           d="m 0,0 10.513,4.374 8.315,-3.459 c 0.105,-0.044 0.105,-0.191 0,-0.235 L 8.959,-3.426 c -0.232,-0.096 -0.493,-0.096 -0.725,0 z"
           style="fill:#dadada;fill-opacity:1;fill-rule:nonzero;stroke:none"
           id="path1260" />
      </g>
      <g
         id="g1262"
         transform="translate(506.1726,327.7507)">
        <path
           d="m 0,0 10.513,4.374 9.998,-4.16 c 0.191,-0.079 0.191,-0.349 0,-0.428 l -9.998,-4.16 z"
           style="fill:#dadada;fill-opacity:1;fill-rule:nonzero;stroke:none"
           id="path1264" />
      </g>
      <g
         id="g1266"
         transform="translate(485.5979,319.2448)">
        <path
           d="m 0,0 9.989,4.155 10.513,-4.374 -9.784,-4.07 c -0.467,-0.194 -0.992,-0.194 -1.459,0 L 0,-0.437 C -0.194,-0.356 -0.194,-0.081 0,0"
           style="fill:#dadada;fill-opacity:1;fill-rule:nonzero;stroke:none"
           id="path1268" />
      </g>
      <g
         id="g1270"
         transform="translate(489.0339,330.4094)">
        <path
           d="M 0,0 10.513,4.374 17.066,-2.635 6.553,-7.009 Z"
           style="fill:#ffffff;fill-opacity:1;fill-rule:nonzero;stroke:none"
           id="path1272" />
      </g>
      <g
         id="g1274"
         transform="translate(495.5866,323.4001)">
        <path
           d="M 0,0 10.513,4.374 21.026,0 10.513,-4.374 Z"
           style="fill:#ffffff;fill-opacity:1;fill-rule:nonzero;stroke:none"
           id="path1276" />
      </g>
      <g
         id="g1278"
         transform="translate(489.0251,330.4094)">
        <path
           d="m 0,0 12.974,-2.013 2.589,1.062 -5.05,5.325 z"
           style="fill:#dadada;fill-opacity:1;fill-rule:nonzero;stroke:none"
           id="path1280" />
      </g>
      <g
         id="g1282"
         transform="translate(510.5837,325.8806)">
        <path
           d="M 0,0 -4.5,-1.991 C -4.64,-2.053 -4.644,-2.25 -4.508,-2.318 l 3.235,-1.577 3.334,3.072 z"
           style="fill:#dadada;fill-opacity:1;fill-rule:nonzero;stroke:none"
           id="path1284" />
      </g>
      <g
         id="g1286"
         transform="translate(506.1179,327.7668)">
        <path
           d="M 0,0 6.174,10.123 16.688,5.749 10.513,-4.374 Z"
           style="fill:#ffffff;fill-opacity:1;fill-rule:nonzero;stroke:none"
           id="path1288" />
      </g>
      <g
         id="g1290"
         transform="translate(489.4885,330.3117)">
        <path
           d="m 0,0 6.167,-6.596 9.989,4.157 -6.166,6.595 z m 6.098,-7.176 c -0.072,0 -0.143,0.029 -0.194,0.083 l -6.552,7.01 c -0.06,0.063 -0.084,0.152 -0.066,0.237 0.018,0.085 0.077,0.155 0.158,0.189 L 9.957,4.717 c 0.101,0.041 0.221,0.016 0.295,-0.064 l 6.553,-7.009 c 0.059,-0.064 0.084,-0.152 0.066,-0.237 -0.018,-0.085 -0.078,-0.156 -0.158,-0.19 L 6.199,-7.156 C 6.167,-7.17 6.132,-7.176 6.098,-7.176"
           style="fill:#41404d;fill-opacity:1;fill-rule:nonzero;stroke:none"
           id="path1292" />
      </g>
      <g
         id="g1294"
         transform="translate(512.2917,337.8908)">
        <path
           d="m 0,0 -0.11,9.196 10.513,-4.374 0.11,-9.196 z"
           style="fill:#ffffff;fill-opacity:1;fill-rule:nonzero;stroke:none"
           id="path1296" />
      </g>
      <g
         id="g1298"
         transform="translate(506.5051,327.8923)">
        <path
           d="M 0,0 10.018,-4.167 15.913,5.497 5.895,9.666 Z m 10.126,-4.765 c -0.035,0 -0.069,0.007 -0.102,0.02 l -10.513,4.374 c -0.072,0.03 -0.127,0.09 -0.151,0.163 -0.025,0.074 -0.014,0.154 0.025,0.221 L 5.56,10.136 c 0.069,0.111 0.209,0.155 0.328,0.107 L 16.401,5.868 c 0.072,-0.03 0.127,-0.089 0.151,-0.163 0.025,-0.074 0.014,-0.154 -0.025,-0.22 L 10.353,-4.638 c -0.05,-0.081 -0.137,-0.127 -0.227,-0.127"
           style="fill:#41404d;fill-opacity:1;fill-rule:nonzero;stroke:none"
           id="path1300" />
      </g>
      <g
         id="g1302"
         transform="translate(512.2493,337.8893)">
        <path
           d="M 0,0 -0.068,9.197 10.445,4.823 v -9.197 z"
           style="fill:#dadada;fill-opacity:1;fill-rule:nonzero;stroke:none"
           id="path1304" />
      </g>
      <g
         id="g1306"
         transform="translate(512.5549,338.0685)">
        <path
           d="m 0,0 9.98,-4.153 -0.104,8.619 -9.98,4.153 z m 10.25,-4.817 c -0.034,0 -0.069,0.006 -0.101,0.02 l -10.514,4.374 c -0.098,0.041 -0.162,0.136 -0.163,0.242 l -0.111,9.196 c -0.001,0.089 0.042,0.173 0.117,0.223 0.073,0.051 0.168,0.06 0.25,0.026 L 10.241,4.889 c 0.098,-0.041 0.163,-0.136 0.164,-0.242 l 0.111,-9.196 c 10e-4,-0.089 -0.043,-0.173 -0.118,-0.223 -0.044,-0.03 -0.096,-0.045 -0.148,-0.045"
           style="fill:#41404d;fill-opacity:1;fill-rule:nonzero;stroke:none"
           id="path1308" />
      </g>
      <g
         id="g1310"
         transform="translate(495.6047,323.4001)">
        <path
           d="M 0,0 -10.022,-1.721 0.491,-6.095 10.513,-4.374 Z"
           style="fill:#ffffff;fill-opacity:1;fill-rule:nonzero;stroke:none"
           id="path1312" />
      </g>
      <g
         id="g1314"
         transform="translate(486.529,321.572)">
        <path
           d="m 0,0 9.597,-3.993 9.044,1.554 -9.596,3.993 z m 9.566,-4.532 c -0.035,0 -0.069,0.007 -0.101,0.02 l -10.514,4.374 c -0.11,0.045 -0.175,0.157 -0.161,0.274 0.012,0.118 0.101,0.212 0.218,0.232 L 9.031,2.09 C 9.08,2.099 9.133,2.092 9.178,2.074 L 19.69,-2.301 c 0.11,-0.045 0.175,-0.157 0.162,-0.274 -0.013,-0.118 -0.102,-0.212 -0.219,-0.233 L 9.611,-4.529 C 9.596,-4.531 9.581,-4.532 9.566,-4.532"
           style="fill:#41404d;fill-opacity:1;fill-rule:nonzero;stroke:none"
           id="path1316" />
      </g>
      <g
         id="g1318"
         transform="translate(483.3518,331.7858)">
        <path
           d="M 0,0 -1.165,0.484 2.23,-10.107 12.744,-14.481 9.348,-3.889 2.555,-1.063"
           style="fill:#f4c151;fill-opacity:1;fill-rule:nonzero;stroke:none"
           id="path1320" />
      </g>
      <g
         id="g1322"
         transform="translate(496.0954,317.0397)">
        <path
           d="m 0,0 c -0.034,0 -0.07,0.007 -0.102,0.02 l -10.513,4.374 c -0.073,0.03 -0.128,0.09 -0.152,0.164 l -3.395,10.592 c -0.03,0.098 -0.003,0.206 0.074,0.276 0.076,0.07 0.188,0.09 0.281,0.05 l 1.165,-0.485 c 0.136,-0.056 0.2,-0.212 0.143,-0.347 -0.057,-0.135 -0.214,-0.197 -0.346,-0.143 l -0.635,0.264 3.182,-9.928 9.87,-4.107 -3.183,9.929 -6.68,2.779 c -0.136,0.057 -0.2,0.212 -0.143,0.348 0.056,0.135 0.213,0.198 0.346,0.142 l 6.795,-2.826 c 0.072,-0.03 0.127,-0.09 0.151,-0.164 L 0.252,0.346 C 0.284,0.248 0.256,0.14 0.179,0.07 0.129,0.024 0.065,0 0,0"
           style="fill:#41404d;fill-opacity:1;fill-rule:nonzero;stroke:none"
           id="path1324" />
      </g>
      <g
         id="g1326"
         transform="translate(506.0988,319.0261)">
        <path
           d="M 0,0 10.513,4.374 17.388,10.709 6.876,6.335 Z"
           style="fill:#f4c151;fill-opacity:1;fill-rule:nonzero;stroke:none"
           id="path1328" />
      </g>
      <g
         id="g1330"
         transform="translate(513.1189,325.1345)">
        <path
           d="m 0,0 -5.738,-5.288 9.086,3.781 5.738,5.287 z m -7.02,-6.374 c -0.088,0 -0.173,0.044 -0.224,0.122 -0.07,0.108 -0.051,0.251 0.045,0.338 l 6.874,6.336 c 0.023,0.021 0.049,0.038 0.078,0.05 l 10.514,4.374 c 0.118,0.05 0.254,0.007 0.325,-0.102 0.07,-0.109 0.051,-0.251 -0.045,-0.339 L 3.672,-1.93 C 3.65,-1.951 3.624,-1.968 3.595,-1.979 L -6.918,-6.354 c -0.034,-0.013 -0.068,-0.02 -0.102,-0.02"
           style="fill:#41404d;fill-opacity:1;fill-rule:nonzero;stroke:none"
           id="path1332" />
      </g>
      <g
         id="g1334"
         transform="translate(489.0339,330.4094)">
        <path
           d="M 0,0 10.513,4.374 10.62,14.411 0.107,10.037 Z"
           style="fill:#dadada;fill-opacity:1;fill-rule:nonzero;stroke:none"
           id="path1336" />
      </g>
      <g
         id="g1338"
         transform="translate(489.405,340.2687)">
        <path
           d="m 0,0 -0.102,-9.459 9.981,4.151 0.1,9.46 z m -0.371,-10.125 c -0.052,0 -0.104,0.016 -0.149,0.046 -0.074,0.05 -0.118,0.133 -0.117,0.223 L -0.529,0.18 c 0.001,0.106 0.066,0.202 0.164,0.243 l 10.512,4.374 c 0.081,0.034 0.175,0.024 0.25,-0.026 0.075,-0.049 0.118,-0.133 0.117,-0.222 L 10.407,-5.488 C 10.406,-5.594 10.342,-5.689 10.244,-5.73 L -0.27,-10.104 c -0.032,-0.014 -0.067,-0.021 -0.101,-0.021"
           style="fill:#41404d;fill-opacity:1;fill-rule:nonzero;stroke:none"
           id="path1340" />
      </g>
      <g
         id="g1342"
         transform="translate(497.4509,346.0246)">
        <path
           d="m 0,0 0.814,0.316 1.389,-1.52 -10.513,-4.374 1.189,2.637 4.188,1.737"
           style="fill:#dadada;fill-opacity:1;fill-rule:nonzero;stroke:none"
           id="path1344" />
      </g>
      <g
         id="g1346"
         transform="translate(489.1413,340.1808)">
        <path
           d="m 0,0 c -0.07,0 -0.139,0.028 -0.19,0.081 -0.076,0.078 -0.097,0.194 -0.051,0.293 l 1.188,2.637 c 0.028,0.062 0.078,0.111 0.14,0.136 L 5.275,4.885 C 5.409,4.94 5.566,4.877 5.621,4.741 5.678,4.606 5.614,4.451 5.478,4.395 L 1.388,2.698 0.518,0.768 10.062,4.74 9.05,5.847 8.406,5.596 C 8.269,5.544 8.116,5.61 8.062,5.748 8.009,5.884 8.076,6.038 8.213,6.09 L 9.027,6.407 C 9.129,6.448 9.247,6.419 9.32,6.339 L 10.708,4.818 C 10.767,4.755 10.791,4.667 10.771,4.582 10.753,4.498 10.694,4.428 10.614,4.395 L 0.102,0.021 C 0.07,0.007 0.034,0 0,0"
           style="fill:#41404d;fill-opacity:1;fill-rule:nonzero;stroke:none"
           id="path1348" />
      </g>
      <g
         id="g1350"
         transform="translate(509.9304,335.7282)">
        <path
           d="m 0,0 10.513,3.802 0.595,-1.915 1.991,-6.406 0.458,-1.474 -10.513,-4.374 z"
           style="fill:#f4c151;fill-opacity:1;fill-rule:nonzero;stroke:none"
           id="path1352" />
      </g>
      <g
         id="g1354"
         transform="translate(510.2541,335.5637)">
        <path
           d="m 0,0 2.891,-9.844 10.017,4.168 -2.89,9.299 z m 2.72,-10.468 c -0.04,0 -0.078,0.009 -0.115,0.026 -0.068,0.033 -0.119,0.092 -0.141,0.165 L -0.579,0.09 c -0.04,0.135 0.033,0.276 0.165,0.324 l 10.513,3.802 c 0.069,0.026 0.143,0.02 0.209,-0.011 0.065,-0.033 0.113,-0.09 0.134,-0.159 l 3.044,-9.796 c 0.041,-0.131 -0.025,-0.271 -0.151,-0.324 L 2.821,-10.448 c -0.032,-0.013 -0.067,-0.02 -0.101,-0.02"
           style="fill:#41404d;fill-opacity:1;fill-rule:nonzero;stroke:none"
           id="path1356" />
      </g>
      <g
         id="g1358"
         transform="translate(516.074,349.2067)">
        <path
           d="M 0,0 -1.171,1.148 -11.684,5.522 -3.893,-2.12 6.621,-6.494 2.047,-2.008"
           style="fill:#dadada;fill-opacity:1;fill-rule:nonzero;stroke:none"
           id="path1360" />
      </g>
      <g
         id="g1362"
         transform="translate(522.6941,342.4474)">
        <path
           d="m 0,0 c -0.034,0 -0.068,0.007 -0.102,0.02 l -10.513,4.375 c -0.031,0.012 -0.06,0.032 -0.084,0.055 l -7.791,7.642 c -0.091,0.089 -0.105,0.23 -0.035,0.336 0.068,0.107 0.204,0.148 0.322,0.099 L -7.689,8.153 C -7.657,8.14 -7.629,8.121 -7.605,8.097 L -6.436,6.948 C -6.331,6.846 -6.329,6.678 -6.431,6.573 -6.534,6.469 -6.704,6.468 -6.806,6.57 l -1.134,1.113 -9.197,3.826 6.773,-6.644 9.197,-3.827 -3.592,3.523 c -0.104,0.103 -0.106,0.272 -0.004,0.376 0.103,0.105 0.271,0.105 0.375,0.003 L 0.186,0.455 C 0.277,0.366 0.292,0.225 0.221,0.119 0.171,0.042 0.087,0 0,0"
           style="fill:#41404d;fill-opacity:1;fill-rule:nonzero;stroke:none"
           id="path1364" />
      </g>
      <g
         id="g1366"
         transform="translate(503.3493,354.1203)">
        <path
           d="M 0,0 1.042,0.609 11.555,-3.765 10.078,-4.628 C 9.052,-5.229 7.804,-5.313 6.707,-4.856 l -6.563,2.73 C -0.763,-1.749 -0.848,-0.497 0,0"
           style="fill:#f4c151;fill-opacity:1;fill-rule:nonzero;stroke:none"
           id="path1368" />
      </g>
      <g
         id="g1370"
         transform="translate(503.3493,354.1198)">
        <path
           d="M 0,0 H 0.006 Z M 1.062,0.313 0.134,-0.229 c -0.309,-0.181 -0.48,-0.502 -0.455,-0.86 0.024,-0.358 0.236,-0.654 0.567,-0.791 l 6.563,-2.731 c 1.014,-0.422 2.185,-0.344 3.135,0.212 l 1.017,0.594 z M 8.16,-5.41 c -0.529,0 -1.058,0.102 -1.555,0.309 l -6.563,2.73 c -0.514,0.214 -0.855,0.691 -0.893,1.246 -0.037,0.554 0.238,1.073 0.717,1.354 l 1.042,0.609 c 0.07,0.041 0.158,0.049 0.235,0.016 l 10.514,-4.373 c 0.093,-0.039 0.156,-0.127 0.162,-0.227 0.008,-0.101 -0.043,-0.196 -0.13,-0.247 L 10.212,-4.857 C 9.585,-5.224 8.874,-5.41 8.16,-5.41"
           style="fill:#41404d;fill-opacity:1;fill-rule:nonzero;stroke:none"
           id="path1372" />
      </g>
    </g>
  </g>
</svg>
