<?xml version="1.0" ?><!DOCTYPE svg  PUBLIC '-//W3C//DTD SVG 1.1//EN'  'http://www.w3.org/Graphics/SVG/1.1/DTD/svg11.dtd'><svg enable-background="new 0 0 512 512" id="Layer_1" version="1.1" viewBox="0 0 512 512" xml:space="preserve" xmlns="http://www.w3.org/2000/svg" xmlns:xlink="http://www.w3.org/1999/xlink"><g><path d="M294.7,477.8V32.1c0-14.4-11.7-26.1-26.1-26.1   h-11.3c-14.4,0-26.1,11.7-26.1,26.1v445.8H125.7c-4.7,0-8.5,3.8-8.5,8.5v11.3c0,4.7,3.8,8.5,8.5,8.5h271.8c4.7,0,8.5-3.8,8.5-8.5   v-11.3c0-4.7-3.8-8.5-8.5-8.5H294.7z" fill="#FBC858" stroke="#000000" stroke-miterlimit="10" stroke-width="8"/><path d="M376.7,143.9H178.1c-4.7,0-8.5-3.8-8.5-8.5V77.7   c0-4.7,3.8-8.5,8.5-8.5h198.7c1.8,0,3.5,0.6,4.9,1.6L422,99.7c4.7,3.4,4.7,10.4,0,13.8l-40.3,28.9   C380.2,143.4,378.5,143.9,376.7,143.9z" fill="#FFE235" stroke="#000000" stroke-miterlimit="10" stroke-width="8"/><path d="M135.3,245.4h198.7c4.7,0,8.5-3.8,8.5-8.5v-57.7   c0-4.7-3.8-8.5-8.5-8.5H135.3c-1.8,0-3.5,0.6-4.9,1.6L90,201.2c-4.7,3.4-4.7,10.4,0,13.8l40.3,28.9   C131.8,244.9,133.5,245.4,135.3,245.4z" fill="#FFE235" stroke="#000000" stroke-miterlimit="10" stroke-width="8"/><circle cx="263" cy="69.3" fill="#FBC858" r="14.6" stroke="#000000" stroke-miterlimit="10" stroke-width="8"/><circle cx="263" cy="170.8" fill="#FBC858" r="14.6" stroke="#000000" stroke-miterlimit="10" stroke-width="8"/></g></svg>