<?xml version="1.0" encoding="iso-8859-1"?>
<!-- Generator: Adobe Illustrator 16.0.0, SVG Export Plug-In . SVG Version: 6.00 Build 0)  -->
<!DOCTYPE svg PUBLIC "-//W3C//DTD SVG 1.1//EN" "http://www.w3.org/Graphics/SVG/1.1/DTD/svg11.dtd">
<svg version="1.1" id="Capa_1" xmlns="http://www.w3.org/2000/svg" xmlns:xlink="http://www.w3.org/1999/xlink" x="0px" y="0px"
	 width="699.585px" height="699.585px" viewBox="0 0 699.585 699.585" style="enable-background:new 0 0 699.585 699.585;"
	 xml:space="preserve">
<g>
	<g>
		<g>
			<path d="M349.849,601.183c0-6.013,4.874-10.886,10.887-10.886s10.887,4.873,10.887,10.886l-0.046,86.632
				c0,6.013-4.874,10.887-10.886,10.887c-5.989,0-10.887-4.874-10.887-10.887L349.849,601.183z"/>
			<path d="M349.827,0c18.037,0,34.434,7.401,46.299,19.267l0.615,0.66c11.523,11.843,18.651,27.989,18.651,45.638v240.469
				c0,17.946-7.379,34.388-19.289,46.275l0.022,0.022c-11.865,11.865-28.262,19.267-46.299,19.267s-34.457-7.379-46.322-19.242
				c-11.865-11.866-19.244-28.264-19.244-46.322V65.565c0-18.037,7.379-34.457,19.244-46.322C315.371,7.379,331.768,0,349.827,0
				L349.827,0z M380.663,34.73c-7.926-7.902-18.856-12.844-30.836-12.844c-12.002,0-22.933,4.942-30.858,12.844
				c-7.925,7.902-12.845,18.857-12.845,30.858v240.468c0,12.002,4.919,22.934,12.845,30.859
				c7.925,7.902,18.834,12.844,30.858,12.844c11.979,0,22.934-4.942,30.836-12.844l0.021,0.022l0.022-0.022
				c7.903-7.88,12.799-18.834,12.799-30.836V65.565c0-11.729-4.668-22.455-12.273-30.312L380.663,34.73z"/>
			<path d="M195.33,238.988c4.259-4.236,11.182-4.19,15.418,0.045c4.236,4.259,4.213,11.182-0.045,15.418
				c-18.128,18.105-32.749,39.786-42.724,63.857l-0.16,0.342c-9.474,23.024-14.712,48.326-14.712,74.903
				c0,46.823,16.329,89.797,43.566,123.525c27.761,34.388,66.91,59.257,111.706,68.822c5.898,1.229,9.656,7.06,8.426,12.936
				c-1.23,5.875-7.06,9.656-12.936,8.403c-49.784-10.636-93.304-38.282-124.186-76.521c-30.289-37.485-48.44-85.242-48.44-137.188
				c0-29.242,5.83-57.276,16.329-82.897l0.273-0.706C158.892,283.215,175.151,259.143,195.33,238.988L195.33,238.988z
				 M372.783,610.884c-5.967,0.615-11.342-3.758-11.956-9.725c-0.615-5.989,3.758-11.341,9.747-11.956
				c49.67-5.215,93.873-28.945,125.528-64.131c31.313-34.821,50.398-80.938,50.398-131.52c0-13.572-1.344-26.668-3.85-39.171
				c-2.618-12.981-6.535-25.552-11.568-37.485c-4.896-11.569-11-22.706-18.06-33.205c-7.062-10.453-15.168-20.292-24.142-29.264
				c-4.259-4.259-4.259-11.205,0-15.463c4.259-4.258,11.205-4.259,15.464,0c9.885,9.884,18.879,20.815,26.781,32.521
				c7.743,11.478,14.484,23.867,20.041,36.984c5.604,13.232,9.952,27.215,12.867,41.653c2.87,14.165,4.373,28.718,4.373,43.43
				c0,56.139-21.227,107.379-56.047,146.094C477.177,578.75,428.032,605.1,372.783,610.884L372.783,610.884z M550.646,192.666
				c26.235,26.235,47.394,57.572,61.785,92.28c13.848,33.386,21.498,70.097,21.498,108.608c0,64.996-21.794,124.893-58.481,172.693
				c-37.51,48.94-90.641,85.334-151.925,101.729c-5.829,1.55-9.291,7.538-7.742,13.369c1.549,5.808,7.538,9.27,13.367,7.721
				c65.977-17.674,123.185-56.866,163.631-109.588c39.511-51.56,63.014-116.055,63.014-185.947
				c0-41.357-8.267-80.893-23.229-116.966c-15.531-37.486-38.282-71.214-66.454-99.385c-4.259-4.259-11.204-4.259-15.464,0
				C546.387,181.484,546.387,188.407,550.646,192.666L550.646,192.666z M360.052,677.726c-2.209,0.137-4.373,0.113-6.49,0.068
				h-0.137l-3.553-0.046h-0.091v-0.046c-78.456,0-149.533-31.814-200.933-83.192C97.471,543.11,65.655,472.032,65.655,393.576
				c0-19.518,1.936-38.465,5.58-56.57c3.78-18.743,9.428-36.825,16.716-54.042c7.083-16.784,15.874-32.863,26.076-47.962
				c10.294-15.258,22-29.446,34.912-42.359c4.236-4.259,4.213-11.182-0.045-15.418c-4.236-4.259-11.159-4.213-15.395,0.045
				c-13.938,13.938-26.554,29.196-37.554,45.502c-10.84,16.079-20.269,33.432-28.034,51.742
				c-7.857,18.538-13.938,38.009-18.014,58.21c-3.987,19.792-6.105,40.173-6.105,60.83c0,84.445,34.274,160.965,89.615,216.328
				l0.046,0.046c55.363,55.34,131.86,89.614,216.328,89.614v-0.045l3.302,0.045h0.045h0.137c2.778,0.046,5.58,0.092,8.153-0.068
				c6.013-0.363,10.567-5.557,10.203-11.567C371.234,681.915,366.064,677.338,360.052,677.726z"/>
			<path d="M503.39,239.922c4.26,4.259,4.26,11.205,0,15.463c-4.259,4.258-11.204,4.259-15.463,0
				c-10.658-10.658-15.986-24.664-15.986-38.646c0-13.983,5.352-27.989,15.986-38.647l0.774-0.706
				c10.565-10.157,24.229-15.304,37.872-15.304c14.006,0,27.988,5.352,38.646,16.01c4.259,4.259,4.259,11.205,0,15.463
				c-4.259,4.259-11.205,4.259-15.464,0c-6.376-6.399-14.779-9.61-23.16-9.61c-8.176,0-16.352,3.006-22.684,9.064l-0.501,0.546
				c-6.376,6.377-9.587,14.803-9.587,23.184C493.78,225.119,497.013,233.545,503.39,239.922z"/>
			<path d="M216.304,249.077c-4.258,4.259-11.205,4.259-15.463,0c-4.258-4.258-4.258-11.205,0-15.463l0.023-0.022
				c6.376-6.377,9.588-14.78,9.588-23.161c0-8.426-3.211-16.807-9.565-23.207l-0.023,0.045h-0.023
				c-6.376-6.376-14.78-9.61-23.161-9.61c-8.404,0-16.83,3.211-23.229,9.61c-4.281,4.236-11.182,4.213-15.417-0.068
				c-4.236-4.236-4.213-11.159,0.045-15.395c10.681-10.658,24.641-16.01,38.602-16.01c14.006,0,27.989,5.352,38.624,16.01
				l0.023,0.022h-0.023l0.023,0.023c10.635,10.681,15.987,24.618,15.987,38.579C232.313,224.413,226.961,238.419,216.304,249.077
				L216.304,249.077z"/>
			<path d="M370.574,589.203c5.967-0.614,11.341,3.758,11.956,9.725c0.614,5.989-3.759,11.342-9.726,11.956l-10.977,1.162
				c-5.967,0.614-11.342-3.758-11.956-9.725c-0.615-5.968,3.757-11.343,9.724-11.956L370.574,589.203z"/>
		</g>
	</g>
</g>
<g>
</g>
<g>
</g>
<g>
</g>
<g>
</g>
<g>
</g>
<g>
</g>
<g>
</g>
<g>
</g>
<g>
</g>
<g>
</g>
<g>
</g>
<g>
</g>
<g>
</g>
<g>
</g>
<g>
</g>
</svg>
