<?xml version="1.0" ?>
<svg style="enable-background:new 0 0 512 512;" version="1.1" viewBox="0 0 512 512" xml:space="preserve" xmlns="http://www.w3.org/2000/svg" xmlns:xlink="http://www.w3.org/1999/xlink">
<g id="_x31_3_x2C__route_x2C__Map_pointer_x2C__location._Destination">
  <g>
    <path d="M403.06,440.7c10.92,0,19.82,8.9,19.82,19.8c0,10.92-8.9,19.82-19.82,19.82    c-10.89,0-19.8-8.9-19.8-19.82C383.26,449.6,392.17,440.7,403.06,440.7z" style="fill:#E74C3C;"/>
    <path d="M128.74,379.48c0,10.91-8.91,19.81-19.8,19.81c-10.92,0-19.82-8.9-19.82-19.81    c0-10.9,8.9-19.8,19.82-19.8C119.83,359.68,128.74,368.58,128.74,379.48z" style="fill:#E74C3C;"/>
    <path d="M311.97,146.56c10.89,0,19.8,8.9,19.8,19.8c0,10.91-8.91,19.82-19.8,19.82    c-10.92,0-19.82-8.91-19.82-19.82C292.15,155.46,301.05,146.56,311.97,146.56z" style="fill:#E74C3C;"/>
    <path d="M135.83,51.5c0,10.9-8.91,19.8-19.82,19.8c-10.9,0-19.8-8.9-19.8-19.8    c0-10.92,8.9-19.82,19.8-19.82C126.92,31.68,135.83,40.58,135.83,51.5z" style="fill:#E74C3C;"/>
    <path d="M296.891,163.491c-1.697,0-3.416-0.432-4.991-1.341L129.13,68.18c-4.783-2.761-6.422-8.877-3.66-13.66    c2.761-4.782,8.877-6.421,13.66-3.66l162.77,93.97c4.783,2.761,6.422,8.877,3.66,13.66    C303.708,161.698,300.347,163.491,296.891,163.491z"/>
    <path d="M121.37,374.07c-2.56,0-5.119-0.977-7.071-2.93c-3.905-3.905-3.905-10.236,0-14.142l180.61-180.59    c3.906-3.905,10.237-3.904,14.142,0c3.905,3.906,3.905,10.237,0,14.142l-180.61,180.59    C126.488,373.094,123.929,374.07,121.37,374.07z"/>
    <path d="M383.937,465.383c-0.857,0-1.727-0.111-2.594-0.344l-256.52-68.729c-5.335-1.43-8.501-6.912-7.071-12.247    c1.429-5.335,6.914-8.501,12.247-7.071l256.52,68.729c5.335,1.43,8.501,6.912,7.071,12.247    C392.393,462.435,388.352,465.383,383.937,465.383z"/>
    <path d="M116.01,81.3c-16.432,0-29.8-13.368-29.8-29.8c0-16.443,13.368-29.82,29.8-29.82c16.443,0,29.82,13.377,29.82,29.82    C145.83,67.931,132.453,81.3,116.01,81.3z M116.01,41.68c-5.404,0-9.8,4.405-9.8,9.82c0,5.404,4.396,9.8,9.8,9.8    c5.415,0,9.82-4.396,9.82-9.8C125.83,46.085,121.425,41.68,116.01,41.68z"/>
    <path d="M311.97,196.18c-16.443,0-29.82-13.377-29.82-29.82c0-16.432,13.377-29.8,29.82-29.8c16.432,0,29.8,13.368,29.8,29.8    C341.77,182.802,328.402,196.18,311.97,196.18z M311.97,156.56c-5.415,0-9.82,4.396-9.82,9.8c0,5.415,4.405,9.82,9.82,9.82    c5.404,0,9.8-4.405,9.8-9.82C321.77,160.956,317.374,156.56,311.97,156.56z"/>
    <path d="M108.94,409.29c-16.443,0-29.82-13.372-29.82-29.81c0-16.433,13.377-29.801,29.82-29.801    c16.432,0,29.8,13.368,29.8,29.801C138.74,395.918,125.372,409.29,108.94,409.29z M108.94,369.679c-5.415,0-9.82,4.396-9.82,9.801    c0,5.409,4.405,9.81,9.82,9.81c5.404,0,9.8-4.4,9.8-9.81C118.74,374.076,114.344,369.679,108.94,369.679z"/>
    <path d="M403.06,490.32c-16.432,0-29.8-13.377-29.8-29.82c0-16.432,13.368-29.8,29.8-29.8c16.443,0,29.82,13.368,29.82,29.8    C432.88,476.943,419.503,490.32,403.06,490.32z M403.06,450.7c-5.404,0-9.8,4.396-9.8,9.8c0,5.415,4.396,9.82,9.8,9.82    c5.415,0,9.82-4.405,9.82-9.82C412.88,455.096,408.475,450.7,403.06,450.7z"/>
  </g>
</g>
<g id="Layer_1"/>
</svg>